<?xml version="1.0" standalone="no"?>
<!DOCTYPE svg PUBLIC "-//W3C//DTD SVG 1.1//EN" "http://www.w3.org/Graphics/SVG/1.1/DTD/svg11.dtd" >
<svg>
<metadata>
Created by FontForge 20090622 at Tue May 21 09:31:34 2019
 By deploy user
Copyright (c) 2011 by Avraham Cornfeld. All rights reserved.
</metadata>
<defs>
<font id="AlmoniTzarAAA-Bold" horiz-adv-x="0" >
  <font-face 
    font-family="Almoni Tzar AAA"
    font-weight="700"
    font-stretch="normal"
    units-per-em="2048"
    panose-1="2 11 8 6 0 0 0 2 0 4"
    ascent="1648"
    descent="-400"
    bbox="-369 -600 3170 1782"
    underline-thickness="50"
    underline-position="-300"
    unicode-range="U+0020-U+FB4B"
  />
<missing-glyph horiz-adv-x="330" 
 />
    <glyph glyph-name=".notdef" horiz-adv-x="330" 
 />
    <glyph glyph-name=".null" 
 />
    <glyph glyph-name="nonmarkingreturn" horiz-adv-x="682" 
 />
    <glyph glyph-name="space" unicode=" " horiz-adv-x="330" 
 />
    <glyph glyph-name="space" unicode="&#xa0;" horiz-adv-x="330" 
 />
    <glyph glyph-name="exclam" unicode="!" horiz-adv-x="516" 
d="M88 1273h47h286v-203l-98 -561h-150l-85 561v203zM121 0h288v296h-288v-296z" />
    <glyph glyph-name="quotedbl" unicode="&#x22;" horiz-adv-x="577" 
d="M43 915l95 525h156v-154l-134 -371h-117zM297 915l95 525h156v-154l-134 -371h-117z" />
    <glyph glyph-name="numbersign" unicode="#" horiz-adv-x="1033" 
d="M984 573h-215l-91 -245h218l-29 -93h-225l-86 -233h-101l86 233h-196l-88 -233h-100l88 233h-218l27 93h225l93 245h-227l26 95h238l79 211h100l-79 -211h199l77 211h101l-78 -211h206zM577 328l91 245h-196l-93 -245h198z" />
    <glyph glyph-name="dollar" unicode="$" horiz-adv-x="957" 
d="M948 345q0 -150 -98 -238.5t-285 -99.5v-161h-132v161q-157 6 -265.5 95t-125.5 253h257q18 -81 46.5 -126t87.5 -56v417q-79 34 -139 67.5t-114.5 77t-84 97t-29.5 113.5q0 150 92 237.5t275 92.5v162h132v-164q163 -9 271 -102.5t112 -245.5v-5h-263q-3 156 -120 182
v-345q152 -72 211 -112q146 -102 168 -258q3 -20 4 -42zM304 979q0 -51 27 -95.5t102 -87.5v311q-60 -5 -94.5 -41t-34.5 -87zM565 176q150 4 150 140q0 75 -28.5 123t-121.5 100v-363z" />
    <glyph glyph-name="percent" unicode="%" horiz-adv-x="960" 
d="M184 0l655 1275h-75l-659 -1275h79zM260 1282q184 0 184 -191v-280q0 -92 -46 -141.5t-138 -49.5t-137.5 49.5t-45.5 141.5v280q0 191 183 191zM316 779v339q1 23 -15.5 40.5t-40.5 17.5t-40 -16.5t-16 -41.5v-339q0 -23 16.5 -41t39.5 -18q24 0 40.5 17t15.5 42z
M721 653q184 0 184 -191v-280q0 -92 -46 -141.5t-138 -49.5t-137.5 49.5t-45.5 141.5v280q0 191 183 191zM777 150v339q1 23 -15.5 40.5t-40.5 17.5t-40 -16.5t-16 -41.5v-339q0 -23 16.5 -41t39.5 -18q24 0 40.5 17t15.5 42z" />
    <glyph glyph-name="quotesingle" unicode="'" horiz-adv-x="394" 
d="M51 908l106 531h176v-156l-151 -375h-131z" />
    <glyph glyph-name="parenleft" unicode="(" horiz-adv-x="671" 
d="M700 -210v-110q-22 -5 -93 -5q-101 0 -175.5 27.5t-136 93.5t-99.5 175.5t-58.5 274.5t-20.5 390t20.5 391t58.5 276t99.5 176.5t136 94t175.5 27.5q58 0 93 -8v-110q-75 -4 -127 -21.5t-92.5 -59t-64.5 -100.5t-39.5 -157t-21 -217t-5.5 -292q0 -128 3 -224.5t11 -182
t20 -145.5t32 -110t45.5 -81.5t61.5 -54.5t78.5 -33.5t98.5 -14.5z" />
    <glyph glyph-name="parenright" unicode=")" horiz-adv-x="687" 
d="M-46 -210q56 4 98.5 14.5t78.5 33.5t61.5 54.5t45.5 81.5t32 110t20 145.5t11 182t3 224.5q0 173 -5.5 292t-21 217t-39.5 157t-64.5 100.5t-92.5 59t-127 21.5v110q35 8 93 8q101 0 175.5 -27.5t136 -94t99.5 -176.5t58.5 -276t20.5 -391t-20.5 -390t-58.5 -274.5
t-99.5 -175.5t-136 -93.5t-175.5 -27.5q-71 0 -93 5v110z" />
    <glyph glyph-name="asterisk" unicode="*" horiz-adv-x="874" 
d="M42 1430l54 171q193 -70 276 -118q-22 217 -24 299h173q-4 -111 -26 -296q117 59 281 115l54 -171q-152 -50 -297 -66q72 -63 206 -226l-144 -103q-67 94 -165 257q-89 -172 -154 -257l-141 103q138 171 198 226q-155 28 -291 66z" />
    <glyph glyph-name="plus" unicode="+" horiz-adv-x="776" 
d="M734 685v-193h-257v-254h-193v254h-242v193h242v260h193v-260h257z" />
    <glyph glyph-name="comma" unicode="," horiz-adv-x="357" 
d="M14 -313l101 564h168v-165l-144 -399h-125z" />
    <glyph glyph-name="hyphen" unicode="-" horiz-adv-x="715" 
d="M81 788h558v-247h-558v247z" />
    <glyph glyph-name="period" unicode="." horiz-adv-x="443" 
d="M367 0h-288v296h288v-296z" />
    <glyph glyph-name="slash" unicode="/" horiz-adv-x="549" 
d="M617 1586l-573 -1899h-193l575 1899h191z" />
    <glyph glyph-name="zero" unicode="0" horiz-adv-x="918" 
d="M458 1290q181 0 270.5 -95.5t89.5 -278.5v-549q0 -181 -89.5 -277.5t-270.5 -96.5t-270.5 96.5t-89.5 277.5v549q0 183 89.5 278.5t270.5 95.5zM568 304v665q2 46 -30.5 79.5t-79.5 33.5q-48 0 -79 -32t-31 -81v-665q0 -46 31.5 -80.5t78.5 -34.5t79 33.5t31 81.5z" />
    <glyph glyph-name="one" unicode="1" horiz-adv-x="593" 
d="M42 967q54 0 97.5 16.5t70.5 43t46.5 59t28.5 64.5t14.5 58.5t6.5 43.5v16h186l-2 -1268h-277v813h-171v154z" />
    <glyph glyph-name="two" unicode="2" horiz-adv-x="806" 
d="M430 231h299v-231h-675q315 617 406 810q36 78 36 136.5t-36 83.5q-18 13 -47 16.5t-58 -10t-39 -43.5q-8 -23 -11.5 -55.5t-3.5 -53.5v-22h-257q-2 80 0 112q11 157 103.5 230.5t244.5 75.5q104 1 184.5 -42t123 -116.5t42.5 -177t-51 -217.5q-40 -86 -105 -210
l-110 -205z" />
    <glyph glyph-name="three" unicode="3" horiz-adv-x="803" 
d="M556 673q203 -45 203 -316q0 -179 -91 -274t-259 -95q-177 0 -269.5 83.5t-92.5 276.5v14h259v-9q2 -78 30 -125.5t80 -43.5q91 7 91 201q0 92 -20.5 137t-70.5 55q-28 5 -56 5v184q37 0 51 3q82 5 79 168q0 54 -20.5 88.5t-58.5 34.5q-42 0 -68.5 -34t-26.5 -94v-31
h-257v31q0 169 98.5 258.5t260.5 89.5q153 0 237 -90.5t84 -252.5q0 -216 -183 -264z" />
    <glyph glyph-name="four" unicode="4" horiz-adv-x="867" 
d="M857 482v-220h-112v-262h-212v262h-523l294 1001h266l-229 -793h192v245h212v-233h112z" />
    <glyph glyph-name="five" unicode="5" horiz-adv-x="778" 
d="M568 869q37 -18 61 -41t46 -68t32 -122t10 -190q0 -242 -84.5 -350t-260.5 -108q-219 0 -281 201q-10 28 -16 69.5t-7 69.5v27h233q3 -82 20 -128.5t60 -46.5q50 0 74 63t24 213q0 99 -12.5 156t-33 76.5t-52.5 19.5q-29 0 -50 -27t-25 -71h-227v656h596v-233h-391v-234
q37 61 123.5 82.5t160.5 -14.5z" />
    <glyph glyph-name="six" unicode="6" horiz-adv-x="843" 
d="M414 -14q-164 0 -280.5 109.5t-116.5 266.5q0 82 22 150t71 163l304 593h308l-337 -553q46 17 95.5 17t82.5 -12q121 -43 184 -137t63 -221q0 -159 -115 -267.5t-281 -108.5zM414 551q-70 1 -114.5 -52t-44.5 -127q0 -83 48 -134.5t111 -51.5q58 0 104.5 58.5t46.5 127.5
q0 73 -40.5 126t-110.5 53z" />
    <glyph glyph-name="seven" unicode="7" horiz-adv-x="708" 
d="M406 0h-294l285 1030h-318v238h641z" />
    <glyph glyph-name="eight" unicode="8" horiz-adv-x="948" 
d="M654 671q103 -41 164 -126t61 -195q0 -161 -114.5 -262.5t-292.5 -101.5q-177 0 -293 102t-116 262q0 112 64 198t169 125q-97 29 -153.5 97t-56.5 167q0 142 115.5 242.5t280.5 100.5q162 0 269.5 -100t107.5 -243q0 -99 -55.5 -166t-149.5 -100zM475 1114
q-62 0 -108.5 -44.5t-46.5 -132.5q0 -82 48.5 -131t106.5 -49q59 0 106.5 49t47.5 131q0 86 -46 131.5t-108 45.5zM472 147q58 0 100 60t42 155q0 97 -42 158.5t-100 61.5t-102.5 -62t-44.5 -158q0 -94 44.5 -154.5t102.5 -60.5z" />
    <glyph glyph-name="nine" unicode="9" horiz-adv-x="879" 
d="M443 1285q165 0 279.5 -110.5t114.5 -268.5q0 -78 -19.5 -144t-65.5 -162l-306 -600h-304l321 549q-48 -13 -93 -10.5t-76 12.5q-118 40 -182.5 134t-64.5 221q0 159 116 269t280 110zM443 710q60 0 107.5 54.5t47.5 131.5q0 89 -45.5 136t-109.5 47q-57 0 -100.5 -57
t-43.5 -126t43.5 -127.5t100.5 -58.5z" />
    <glyph glyph-name="colon" unicode=":" horiz-adv-x="504" 
d="M399 739h-288v296h288v-296zM402 0h-288v296h288v-296z" />
    <glyph glyph-name="semicolon" unicode=";" horiz-adv-x="524" 
d="M411 739h-288v296h288v-296zM96 -338l101 564h168v-165l-144 -399h-125z" />
    <glyph glyph-name="less" unicode="&#x3c;" horiz-adv-x="708" 
d="M81 514v130l536 377v-245l-343 -188l340 -194l3 -245z" />
    <glyph glyph-name="equal" unicode="=" horiz-adv-x="654" 
d="M73 528h522v-208h-522v208zM73 940h522v-208h-522v208z" />
    <glyph glyph-name="greater" unicode="&#x3e;" horiz-adv-x="639" 
d="M582 644v-130l-536 -365l3 245l340 194l-343 188v245z" />
    <glyph glyph-name="question" unicode="?" horiz-adv-x="747" 
d="M381 1280q124 -3 202 -54t100 -130.5t-3 -179t-95 -199.5q-74 -105 -95.5 -158t-26.5 -153h-152q-20 133 3.5 224t82.5 185q38 60 55 113.5t6 99t-56 69.5q-41 19 -80.5 -9t-52.5 -91q-6 -33 -6.5 -73.5t1.5 -65.5l3 -24h-240q-16 215 69 333t285 113zM245 0h288v296
h-288v-296z" />
    <glyph glyph-name="bracketleft" unicode="[" horiz-adv-x="537" 
d="M563 1410h-169v-1545h169v-178h-421v1899h421v-176z" />
    <glyph glyph-name="backslash" unicode="\" horiz-adv-x="531" 
d="M458 -313l-573 1899h191l575 -1899h-193z" />
    <glyph glyph-name="bracketright" unicode="]" horiz-adv-x="537" 
d="M-32 1410v176h421v-1899h-421v178h169v1545h-169z" />
    <glyph glyph-name="underscore" unicode="_" horiz-adv-x="813" 
d="M-2 245h824v-242h-824v242z" />
    <glyph glyph-name="grave" unicode="`" horiz-adv-x="394" 
d="M56 908l106 531h176v-156l-151 -375h-131z" />
    <glyph glyph-name="braceleft" unicode="{" horiz-adv-x="577" 
d="M404 862q0 -77 -50 -143.5t-148 -82.5q96 -15 147 -82t51 -143v-257q0 -84 3.5 -134t18 -103.5t42.5 -83t77 -50.5t121 -26v-75q-44 -10 -86 -10q-67 0 -120 8.5t-107 35t-90 70.5t-58.5 120t-22.5 180v323q1 7 1.5 17.5t-5 38.5t-18 49t-44 38.5t-77.5 17.5v133
q46 0 77.5 16.5t44 40.5t18 47.5t4.5 40.5l-1 16v323q0 104 22.5 180t58.5 120t90 70.5t107 35t120 8.5q42 0 86 -10v-75q-72 -5 -121 -26t-77 -50.5t-42.5 -83t-18 -103.5t-3.5 -134v-257z" />
    <glyph glyph-name="bar" unicode="|" horiz-adv-x="472" 
d="M313 1694v-2122h-144v2122h144z" />
    <glyph glyph-name="braceright" unicode="}" horiz-adv-x="573" 
d="M203 862v257q0 84 -3.5 134t-18 103.5t-42.5 83t-77 50.5t-121 26v75q44 10 86 10q67 0 120 -8.5t107 -35t90 -70.5t58.5 -120t22.5 -180v-323q-1 -7 -1.5 -17.5t5 -38.5t18 -49t44 -38.5t77.5 -17.5v-133q-46 0 -77.5 -16.5t-44 -40t-18 -47.5t-4.5 -40l1 -17v-323
q0 -104 -22.5 -180t-58.5 -120t-90 -70.5t-107 -35t-120 -8.5q-42 0 -86 10v75q72 5 121 26t77 50.5t42.5 83t18 103.5t3.5 134v257q0 76 51 143t147 82q-98 16 -148 82.5t-50 143.5z" />
    <glyph glyph-name="guillemotleft" unicode="&#xab;" horiz-adv-x="573" 
d="M43 915l95 525h156v-154l-134 -371h-117zM297 915l95 525h156v-154l-134 -371h-117z" />
    <glyph glyph-name="middot" unicode="&#xb7;" horiz-adv-x="467" 
d="M369 519h-288v296h288v-296z" />
    <glyph glyph-name="guillemotright" unicode="&#xbb;" horiz-adv-x="573" 
d="M43 915l95 525h156v-154l-134 -371h-117zM297 915l95 525h156v-154l-134 -371h-117z" />
    <glyph glyph-name="sheva" unicode="&#x5b0;" 
d="M2 -130q36 0 63.5 -27t27.5 -63q0 -42 -26.5 -67.5t-64.5 -25.5q-40 0 -66.5 25.5t-26.5 67.5q0 31 24 61q23 29 69 29zM2 -416q38 0 64.5 -26.5t26.5 -66.5q0 -35 -27.5 -63t-63.5 -28q-38 0 -65.5 28t-27.5 63q0 42 26 67.5t67 25.5z" />
    <glyph glyph-name="hatafsegol" unicode="&#x5b1;" 
d="M-279 -130q40 0 66.5 -27t26.5 -63q0 -42 -26 -67.5t-67 -25.5q-38 0 -64 25.5t-26 67.5q0 30 23 61q23 29 67 29zM12 -130q35 0 63 -25.5t28 -64.5q0 -42 -25.5 -67.5t-65.5 -25.5q-38 0 -65.5 26t-27.5 67q0 36 27 63t66 27zM282 -130q43 0 66 -29q24 -30 24 -61
q0 -42 -25.5 -67.5t-64.5 -25.5t-66 27t-27 66q0 36 27 63t66 27zM-135 -416q38 0 64.5 -24.5t26.5 -68.5q0 -37 -26.5 -64t-64.5 -27q-36 0 -63 28t-27 63q0 39 24 66t66 27zM282 -416q35 0 62.5 -24.5t27.5 -68.5q0 -35 -26.5 -63t-63.5 -28q-36 0 -64.5 26t-28.5 65
q0 41 26.5 67t66.5 26z" />
    <glyph glyph-name="hatafpatah" unicode="&#x5b2;" 
d="M227 -130q44 0 67 -29q24 -30 24 -61q0 -38 -24.5 -65.5t-66.5 -27.5q-38 0 -64 27t-26 66q0 36 26 63t64 27zM49 -255h-365v113h365v-113zM227 -416q37 0 64 -24.5t27 -68.5q0 -33 -24 -61q-22 -30 -67 -30q-38 0 -64 25.5t-26 65.5t24 66.5t66 26.5z" />
    <glyph glyph-name="hatafqamats" unicode="&#x5b3;" 
d="M227 -130q44 0 67 -29q24 -30 24 -61q0 -38 -24.5 -65.5t-66.5 -27.5q-38 0 -64 27t-26 66q0 36 26 63t64 27zM-66 -416h-128v161h-122v113h365v-113h-115v-161zM227 -416q37 0 64 -24.5t27 -68.5q0 -33 -24 -61q-22 -30 -67 -30q-38 0 -64 25.5t-26 65.5t24 66.5
t66 26.5z" />
    <glyph glyph-name="hiriq" unicode="&#x5b4;" 
d="M2 -284q37 0 64 -26.5t27 -66.5q0 -38 -27 -64t-64 -26q-39 0 -66 25.5t-27 64.5q0 37 25 65t68 28z" />
    <glyph glyph-name="tsere" unicode="&#x5b5;" 
d="M-142 -284q37 0 65 -24.5t28 -68.5q0 -39 -27 -64.5t-66 -25.5t-65 25.5t-26 64.5t26 66t65 27zM145 -284q42 0 66 -28t24 -65q0 -38 -26.5 -64t-63.5 -26q-38 0 -66 24t-28 66q0 35 26 64t68 29z" />
    <glyph glyph-name="segol" unicode="&#x5b6;" 
d="M-142 -127q37 0 65 -24.5t28 -68.5q0 -37 -27 -64t-66 -27t-65 26t-26 65t26 66t65 27zM145 -127q42 0 66 -28t24 -65q0 -39 -26.5 -65t-63.5 -26t-65.5 25.5t-28.5 65.5q0 35 26 64t68 29zM2 -357q38 0 64.5 -26.5t26.5 -67.5q0 -36 -27 -63t-64 -27q-39 0 -66 27
t-27 63q0 40 27 67t66 27z" />
    <glyph glyph-name="patah" unicode="&#x5b7;" 
d="M220 -418h-438v112h438v-112z" />
    <glyph glyph-name="qamats" unicode="&#x5b8;" 
d="M63 -549h-124v184h-157v113h438v-113h-157v-184z" />
    <glyph glyph-name="holam" unicode="&#x5b9;" 
d="M2 1701q33 0 62 -26.5t29 -65.5t-27 -65t-64 -26q-39 0 -66 26t-27 65q0 37 26.5 64.5t66.5 27.5z" />
    <glyph glyph-name="qubuts" unicode="&#x5bb;" 
d="M-262 -133q38 0 65.5 -24t27.5 -65q0 -42 -26 -66.5t-67 -24.5q-38 -1 -63.5 24t-27.5 67q0 36 26 62.5t65 26.5zM2 -271q37 0 64 -26.5t27 -62.5q0 -39 -27 -66t-64 -27q-39 0 -66 26.5t-27 66.5q0 37 27 63t66 26zM264 -406q36 0 63.5 -26t27.5 -65q0 -38 -27.5 -64.5
t-63.5 -26.5q-39 0 -66 26.5t-27 64.5q0 39 25.5 65t67.5 26z" />
    <glyph glyph-name="dagesh" unicode="&#x5bc;" 
d="M0 783q33 0 62 -25q31 -24 31 -67q0 -39 -27.5 -65t-65.5 -26t-65.5 26t-27.5 65q0 36 24.5 64t68.5 28z" />
    <glyph glyph-name="meteg" unicode="&#x5bd;" 
d="M-54 -495v414h110v-414h-110z" />
    <glyph glyph-name="maqaf" unicode="&#x5be;" horiz-adv-x="703" 
d="M61 1266h568v-256h-568v256z" />
    <glyph glyph-name="paseq" unicode="&#x5c0;" 
d="M105 51h-208v1404h208v-1404z" />
    <glyph glyph-name="shindot" unicode="&#x5c1;" 
d="M0 1677q56 0 88 -34t32 -81q0 -46 -31.5 -81t-88.5 -35q-49 0 -83 34t-34 82q0 52 36 83.5t81 31.5z" />
    <glyph glyph-name="sindot" unicode="&#x5c2;" 
d="M0 1677q52 0 84.5 -35.5t32.5 -81.5q-2 -47 -35 -80.5t-82 -33.5t-83 34t-34 82q0 52 36 83.5t81 31.5z" />
    <glyph glyph-name="alef" unicode="&#x5d0;" horiz-adv-x="1112" 
d="M1004 0h-275l-325 683q-30 -2 -48 -38t-18 -94v-551h-267v526q0 83 25 149.5t84.5 114t147.5 57.5l-225 421h282l302 -637q74 14 74 147v490h267v-446q0 -161 -59 -251t-200 -113z" />
    <glyph glyph-name="bet" unicode="&#x5d1;" horiz-adv-x="845" 
d="M808 243v-243h-745v243h322v783h-322v242h630v-1025h115z" />
    <glyph glyph-name="gimel" unicode="&#x5d2;" horiz-adv-x="705" 
d="M531 1268l154 -1268h-264q-40 301 -44 341q-34 -174 -123 -257.5t-212 -83.5h-32v308h63q83 0 137.5 24.5t80.5 69t34.5 108t-0.5 141.5l-43 375h-152v242h401z" />
    <glyph glyph-name="dalet" unicode="&#x5d3;" horiz-adv-x="781" 
d="M328 0v1026h-286v242h690v-242h-98v-1026h-306z" />
    <glyph glyph-name="he" unicode="&#x5d4;" horiz-adv-x="969" 
d="M105 0v783h292v-783h-292zM105 1268h750v-1268h-294v1026h-456v242z" />
    <glyph glyph-name="vav" unicode="&#x5d5;" horiz-adv-x="528" 
d="M110 1268h311v-1268h-311v1268z" />
    <glyph glyph-name="zayin" unicode="&#x5d6;" horiz-adv-x="720" 
d="M284 0l-76 423q-50 296 -42 399q4 37 16 71.5t26 57.5t28 40.5t24 26.5l9 8h-218v242h629v-242h-154q-5 -5 -13.5 -16t-25 -54t-20.5 -97q1 -30 -0.5 -39.5t2.5 -48t5.5 -55t8 -61t10 -66.5l11.5 -71l12 -75q15 -84 36.5 -194.5l35.5 -179.5l14 -69h-318z" />
    <glyph glyph-name="het" unicode="&#x5d7;" horiz-adv-x="1011" 
d="M556 1268q73 0 129.5 -14t95.5 -37.5t66.5 -63.5t43 -81t24 -103t11 -116.5t2.5 -132.5v-720h-304q2 629 2 703q0 166 -1 181q-7 109 -58 136q-23 13 -58 13h-98v-1033h-301v1268h446z" />
    <glyph glyph-name="tet" unicode="&#x5d8;" horiz-adv-x="1018" 
d="M928 1268v-852q0 -212 -113.5 -314t-347.5 -102h-298l-113 1268h297l80 -1035h76q78 0 112.5 54t34.5 168v571h-147v242h419z" />
    <glyph glyph-name="yod" unicode="&#x5d9;" horiz-adv-x="509" 
d="M98 1268h311v-705h-311v705z" />
    <glyph glyph-name="finalkaf" unicode="&#x5da;" horiz-adv-x="785" 
d="M687 1268v-1579h-310v1337h-335v242h645z" />
    <glyph glyph-name="kaf" unicode="&#x5db;" horiz-adv-x="773" 
d="M318 1268q146 0 228 -39t120.5 -134.5t38.5 -267.5v-386q0 -173 -38.5 -268.5t-120 -134t-228.5 -38.5h-257v243h182q48 0 72.5 5t45.5 24t28.5 58.5t7.5 108.5v381q0 105 -32 155.5t-113 50.5h-193v242h259z" />
    <glyph glyph-name="lamed" unicode="&#x5dc;" horiz-adv-x="803" 
d="M783 1268l-301 -1268h-293l237 1026h-370v502h289v-260h438z" />
    <glyph glyph-name="finalmem" unicode="&#x5dd;" horiz-adv-x="942" 
d="M852 847v-847h-740v1268h421q115 0 183 -39t102 -131t34 -251zM590 220v679q0 90 -26.5 122t-103.5 32h-70v-833h200z" />
    <glyph glyph-name="mem" unicode="&#x5de;" horiz-adv-x="991" 
d="M502 0v262h132v551q0 115 -27 163t-110 50h-46l-131 -1026h-278l149 1006h-110v262h470q108 0 175.5 -25.5t109.5 -90.5t57.5 -165.5t14.5 -259.5v-727h-406z" />
    <glyph glyph-name="finalnun" unicode="&#x5df;" horiz-adv-x="531" 
d="M108 1268h313v-1579h-313v1579z" />
    <glyph glyph-name="nun" unicode="&#x5e0;" horiz-adv-x="661" 
d="M39 243h91q86 0 111.5 46.5t25.5 158.5v558h-159v262h455v-911q0 -176 -66.5 -266.5t-214.5 -90.5h-243v243z" />
    <glyph glyph-name="samekh" unicode="&#x5e1;" horiz-adv-x="945" 
d="M54 1268h808q5 -517 0 -815q-5 -221 -112.5 -337t-333.5 -116h-274zM593 558v493h-248l61 -836h37q82 0 116 82.5t34 260.5z" />
    <glyph glyph-name="ayin" unicode="&#x5e2;" horiz-adv-x="937" 
d="M575 1268h282v-632q0 -199 -16 -275q-26 -118 -120 -186q-89 -65 -280 -116l-195.5 -51t-131.5 -32l-39 -8l-51 221l160 46l-118 1033h279l98 -972q61 18 75 27q46 29 54 128q3 30 3 68v749z" />
    <glyph glyph-name="finalpe" unicode="&#x5e3;" horiz-adv-x="969" 
d="M888 813v-1124h-308v1109q0 142 -31 191t-119 49h-65v-482h-290v712h415q108 0 181 -22.5t123 -75.5t72 -140t22 -217z" />
    <glyph glyph-name="pe" unicode="&#x5e4;" horiz-adv-x="957" 
d="M495 1268q209 0 298.5 -115t89.5 -375v-290q0 -259 -89.5 -373.5t-298.5 -114.5h-390v243h353q76 0 106.5 57t30.5 202v283q0 147 -31 200t-109 53h-98v-470h-254v700h392z" />
    <glyph glyph-name="finaltsadi" unicode="&#x5e5;" horiz-adv-x="908" 
d="M549 1268h290v-406q0 -220 -94 -321.5t-312 -114.5l104 -737h-292l-203 1579h288l81 -621q47 1 76 14t42 40t16.5 53t3.5 71v443z" />
    <glyph glyph-name="tsadi" unicode="&#x5e6;" horiz-adv-x="950" 
d="M886 896q0 -169 -70 -249.5t-204 -88.5l243 -558h-743v243h348l-433 1025h306l198 -502q38 -3 56 31t18 84v387h281v-372z" />
    <glyph glyph-name="qof" unicode="&#x5e7;" horiz-adv-x="1006" 
d="M100 -311v1119h267v-1119h-267zM906 1268v0v-719q0 -78 -2.5 -133t-11.5 -116.5t-25 -103t-43.5 -81.5t-67 -63.5t-96 -37.5t-129.5 -14h-54v227h13q73 0 96.5 50.5t23.5 163.5v585h-514v242h810z" />
    <glyph glyph-name="resh" unicode="&#x5e8;" horiz-adv-x="776" 
d="M311 1268q73 0 129.5 -14t95.5 -37.5t66.5 -63.5t43 -81t24 -103t11 -116.5t2.5 -132.5v-720h-311v732v30q1 24 0 48.5l-2 47.5t-5.5 44.5t-11.5 40.5t-19.5 34t-29.5 26t-41.5 17t-54.5 6h-135v242h238z" />
    <glyph glyph-name="shin" unicode="&#x5e9;" horiz-adv-x="1256" 
d="M908 1268h260v-661q0 -168 -35 -288.5t-101.5 -189t-150 -99t-190.5 -30.5h-527l-96 1268h257l81 -1050h192q55 0 95 5.5t83 25.5t70 54.5t44.5 96t17.5 146.5v722zM759 1263v-761h-247v761h247z" />
    <glyph glyph-name="tav" unicode="&#x5ea;" horiz-adv-x="1053" 
d="M590 1268q73 0 129.5 -14t95.5 -37.5t66.5 -63.5t43 -81t24 -103t11 -116.5t2.5 -132.5v-720h-296v773q0 57 -1 87t-5 68t-12.5 56t-24 36t-39.5 24.5t-58 6.5h-61v-1051h-441v243h172v783h-81v242h475z" />
    <glyph glyph-name="endash" unicode="&#x2013;" horiz-adv-x="1065" 
d="M79 735h919v-192h-919v192z" />
    <glyph glyph-name="emdash" unicode="&#x2014;" horiz-adv-x="1740" 
d="M-18 727h1777v-147h-1777v147z" />
    <glyph glyph-name="quoteleft" unicode="&#x2018;" horiz-adv-x="402" 
d="M56 908l106 531h176v-156l-151 -375h-131z" />
    <glyph glyph-name="quoteright" unicode="&#x2019;" horiz-adv-x="387" 
d="M56 908l106 531h176v-156l-151 -375h-131z" />
    <glyph glyph-name="quotesinglbase" unicode="&#x201a;" horiz-adv-x="394" 
d="M56 908l106 531h176v-156l-151 -375h-131z" />
    <glyph glyph-name="quotedblleft" unicode="&#x201c;" horiz-adv-x="573" 
d="M43 915l95 525h156v-154l-134 -371h-117zM297 915l95 525h156v-154l-134 -371h-117z" />
    <glyph glyph-name="quotedblright" unicode="&#x201d;" horiz-adv-x="577" 
d="M43 915l95 525h156v-154l-134 -371h-117zM297 915l95 525h156v-154l-134 -371h-117z" />
    <glyph glyph-name="quotedblbase" unicode="&#x201e;" horiz-adv-x="573" 
d="M43 915l95 525h156v-154l-134 -371h-117zM297 915l95 525h156v-154l-134 -371h-117z" />
    <glyph glyph-name="ellipsis" unicode="&#x2026;" horiz-adv-x="1383" 
d="M369 0h-288v296h288v-296zM825 0h-288v296h288v-296zM1268 0h-288v296h288v-296z" />
    <glyph glyph-name="newsheqelsign" unicode="&#x20aa;" horiz-adv-x="1794" 
d="M1259 932v-521h-282v465q0 106 -42 146q-42 42 -134 43h-424v-1065h-257v1268h837q143 0 222 -90q80 -89 80 -246zM1334 0h-783v857h264v-654h411q106 3 143 49t37 138v878h269v-932q0 -151 -82 -243q-83 -93 -259 -93z" />
    <glyph glyph-name="arrowleft" unicode="&#x2190;" horiz-adv-x="2448" 
d="M458 965h281l-303 -262h1892v-170h-1892l306 -262h-284l-362 341z" />
    <glyph glyph-name="arrowright" unicode="&#x2192;" horiz-adv-x="2448" 
d="M1672 965h281l362 -353l-362 -341h-284l306 262h-1892v170h1892z" />
    <glyph glyph-name="minus" unicode="&#x2212;" horiz-adv-x="703" 
d="M76 788h558v-247h-558v247z" />
    <glyph glyph-name="peace" unicode="&#x262e;" horiz-adv-x="937" 
d="M-23 1171h792h9h183v-1016h-984v1016zM488 973h-6v6h6v11h2v-11h17v4h12v-4h5v13h2v23h12v5h47v6h-85v-28h-17v18h-1v8h1v2h-1v9h1v6h-1v4h1v6h-1v1h1v1h-1v1h1v3h-1v16h-19v-19h-11v-5h11v-186h14v39h1v-6h6v41h4v36zM822 231h-37v-16h19v3h9v-3h13v3h10v-3h15v3h2v-3
h36v9h3v-9h30v81h-17v-4h-18v4h-7v-14h36v-2h-36v-1h-1v1h-34v-12h53v-4h-53v-6h48v-11h-48v-2h62v-14h-62v-4h-23v4zM25 581h-6v-41h28v-7h-28v-13h11v-1h-11v-3h44v11h3v-11h16v5h14v-5h3v14h4v23h11v4h44v8h-82v-28h-20v28h-27v5h-4v11zM210 807h11v-20h14v3h32v30h39v5
h-29v12h29v7h-32v-5h-39v5h-26v-5h-2v5h-6v-7h1v-12h-1v-5h3v-20h-3v-13h9v20zM210 360h11v-19h14v2h32v31h39v4h-29v9h29v7h-32v-6h-39v6h-26v-6h-2v6h-6v-7h1v-9h-1v-4h3v-21h-3v-12h9v19zM634 369h10v-20h15v4h28v29h41v5h-30v10h30v6h-32v-5h-37v5h-25v-5h-4v5h-4v-21h3
v-20h-3v-13h8v20zM361 875v-5h8v4h2v-4h9v4h41v-85h-24v-6h17v-10h6v10h10v-8h28v9h-21v3h21v7h-17v2h17v4h-28v-11h-2v226h-7v-126h-52v-3h-8v-5h8v-6h-8zM634 815h10v-19h15v4h28v32h41v4h-30v10h30v6h-32v-5h-37v5h-25v-5h-4v5h-4v-20h3v-24h-3v-12h8v19zM876 679v-14h46
v77h-17v-1h-18v1h-7v-12h36v-3h-36v-1h-1v1h-3v-12h22v-3h-22v-6h17v-10h-17v-3h31v-10h9v-4h-40zM63 510h-44v-105h6v7h1v77h6v15h13v-61h4v-2h2v-14h4v3h5v43h3v37zM165 1093h4v-5h39v13h-29v-4h-4v4h-22v-3h-6v3h-39v-1h-8v1h-13v-10h-6v10h-12v-5h-3v5h-15v-3h-2v-10h65
v10h16v-10h35v5zM56 994h-25v-8h-12v-8h22v-9h22v12h3v-12h16v4h14v-4h3v14h4v11h-27v-4h-20v4zM785 1006v-2h-42v-8h18v-6h24v-5h-20v-22h24v22h-2v5h8v6h13v8h-21v2h-2zM785 532h-20v-20h24v20h-2v5h8v6h13v9h-65v-9h18v-6h24v-5zM63 962h-27v-5h9v-61h4v-2h2v-18h4v5h5
v45h3v36zM361 546v-3h-39v-9h15v-7h24v-5h-20v-20h24v20h-3v5h9v7h13v9h-22v3h-1zM476 1120v-4h88v15h-88v-5h8v-6h-8zM483 552h-7v-27h12v12h2v-12h17v5h12v-5h5v14h2v13h-26v-6h-17v6zM361 975h-20v-20h24v20h-3v6h9v6h13v7h-62v-7h15v-6h24v-6zM296 942h-47v-4h-33v-4h33
v-6h-33v-4h80v18zM714 337h-18v-12h-25v-21h43v33zM526 564h12v4h72v3h3v3h-113v-21h26v11zM720 496h-49v-2h-32v-5h32v-6h-32v-4h81v17zM905 362v-13h17v96h-6v-3h-11v-2h9v-6h-9v-5h6v-11h-6v-3h15v-12h-15v-21h11v-20h-11zM103 1004h11v5h51v7h-89v-20h27v8zM533 204h11
v8h-20v-5h7v-6h-7v-3h-4v3h-161v-5h185v7h-11v1zM404 543v-57h-33v-3h35v-8h-35v-4h10v-2h33v2h3v92h-6v-77h-6v57h-1zM876 629h46v30h-46v-12h34v-10h-34v-8zM475 647v3h-12v5h12v4h-12v6h12v3h-12v38h12v6h-2v-4h-10v8h-5v1h-9v-11h8v-2h-8v-7h8v-29h-8v-13h8v-5h-8v-3h8
v-2h6v2h12zM506 934v8h1v31h-17v-36h5v-35h2v-9h9v24h-3v17h3zM506 479v9h1v32h-17v-37h5v-32h2v-11h9v23h-3v16h3zM720 949h-49v-2h-32v-4h32v-5h-32v-4h81v15zM26 338h-7v-104h42v4h-32v9h32v9h-16v-6h-19v20h-6v4h6v64zM292 773h-18v-13h-25v-18h43v31zM296 486h-47v-2
h-33v-5h33v-4h-33v-4h80v15zM555 1108v-10h30v12h-8v-3h-6v-5h-7v8h-88v-3h15v-6h-15v-3h62v10h17zM905 808v-12h17v93h-8v-3h-9v-5h6v-13h-6v-4h15v-12h-15v-20h11v-24h-11zM81 471v6h1v33h-16v-37h6v-32h2v-11h7v24h-2v17h2zM81 924v8h1v30h-16v-36h6v-32h2v-13h7v26h-2
v17h2zM610 540h-63v-15h63v15zM274 314h-25v-2h8v-7h-8v-10h43v33h-18v-14zM876 1082h46v28h-46v-12h34v-10h-34v-6zM488 520h-12v-4h7v-6h-7v-59h2v-9h6v41h4v37zM393 221h-34v-14h138v5h-6v-4h-6v4h-112v6h20v3zM696 985v-6h24v13h-36v-5h-5v5h-36v-13h36v6h17zM430 634
v-17h49v17h-49zM458 773h-28v-31h28v31zM458 295v33h-28v-33h28zM322 379v-5h38v-9h28v21h-17v-18h-2v18h-9v-7h-38zM610 992h-63v-13h63v13zM743 388v-6h41v-7h31v19h-20v-16h-1v16h-10v-6h-41zM74 643v7h-25v-13h65v11h7v2h-22v-11h-3v11h-18v-7h-4zM922 1116v20h-46v-3
h40v-2h-40v-15h46zM555 637v-8h96v8h-25v-2h-4v2h-10v-2h-18v2h-39zM26 672h-7v-35h29v13h-22v5h22v13h-22v4zM458 349v4h-28v-11h-33v-5h17v-8h6v8h10v-7h28v8h-21v3h21v6h-17v2h17zM696 531v-6h24v15h-34v-7h-8v7h-16v-15h17v6h17zM388 464h2v-12h19v5h5v9h-33v-2h-10v-22
h9v10h8v12zM651 650h11v-3h52v12h-18v-3h-9v-3h-8v6h-35v-12h7v3zM274 974v-5h22v16h-51v-16h11v5h18zM295 426v4h1v4h-1v8h1v12h-22v-12h8v-8h-8v-4h8v-4h-8v-6h25v6h-4zM905 582h17v35h-35v-6h29v-3h-29v-4h32v-3h-32v-1h18v-7h15v-3h-15v-8zM734 357h11v-8h13v13h-62v-13
h38v8zM312 795h11v-8h10v13h-59v-13h38v8zM905 1034h17v33h-35v-4h29v-3h-29v-6h32v-1h-32v-1h18v-8h15v-3h-15v-7zM879 337h-22v-33h22v33zM524 337h-22v-33h22v33zM879 794h-15v2h15v12h-22v-10h-33v-6h16v-8h6v8h11v-5h22v7zM295 875v6h1v5h-1v10h1v11h-1v1h-13v-1h-8
v-11h8v-10h-8v-5h8v-6h-8v-5h25v5h-4zM815 473h1v-13h21v7h3v8h-36v-2h-9v-20h8v7h12v13zM912 520h-7v-10h17v42h-17v-27h7v-5zM815 926h1v-12h21v6h3v9h-36v-3h-9v-20h8v8h12v12zM388 917h2v-12h19v6h5v8h-33v-2h-10v-21h9v9h8v12zM382 932v-4h-11v-4h10v-2h33v20h-43v-5
h35v-9h-1v4h-23zM312 347h11v-6h10v12h-59v-12h38v6zM48 628h-29v-10h6v2h26v-2h5v8h20v-8h38v10h-65v-5h-1v5zM716 886v7h4v3h-4v10h4v11h-24v-11h8v-10h-8v-3h8v-7h-8v-5h24v5h-4zM716 434v6h4v2h-4v11h4v10h-4v1h-12v-1h-8v-10h8v-11h-8v-2h8v-6h-8v-5h24v5h-4zM879 783
h-22v-31h22v31zM26 721v28h-7v-64h29v3h-19v9h19v7h-3v-5h-19v18h-6v4h6zM335 583v10h-67v-10h67zM879 347h-15v2h15v13h-22v-11h-33v-4h16v-9h6v9h11v-6h22v6zM734 803h11v-7h13v12h-62v-12h38v7zM497 653v6h-21v-4h15v-5h-15v-3h62v10h6v2h-20v-9h-4v9h-18v-6h-5zM124 985
v-16h41v16h-41zM333 618v10h-65v-10h65zM369 836h-9v-2h1v-22h27v24h-17v-21h-2v21zM574 337h-19v-33h19v33zM48 1126v10h-29v-28h29v12h-22v6h22zM458 261v9h-40v-12h67v6h-12v-3h-15zM380 773h-19v-31h19v31zM380 328h-19v-33h19v33zM226 1072h1v-1h12v8h-70v-8h57v1z
M794 844h-9v-23h30v23h-20v-19h-1v19zM228 624h11v4h-38v-3h-4v3h-8v-3h-18v3h-5v-10h62v6zM758 629v8h-72v-8h72zM758 593v8h-72v-8h72zM803 337h-18v-33h18v33zM256 516v6h9v9h-46v-15h37zM26 862v76h-7v-82h6v6h1zM48 1079h-4v-1h-24v1h-1v-8h6v1h26v-1h5v7h20v-7h38v8
h-65v-4h-1v4zM619 1131h-13v-15h45v15h-21v-9h-11v6h-2v2h2v1zM905 485h6v-24h11v42h-17v-18zM577 666v-1h17v14h-39v-14h15v1h7zM651 1110h-45v-12h45v12zM905 337v-33h17v33h-17zM29 1016v4h-10v-5h12v-19h25v20h-27zM803 783h-18v-31h18v31zM424 1126v10h-58v-10h33v7h7
v-7h18zM130 668v-13h17v1h6v-1h18v13h-41zM840 477v19h-45v-5h38v-8h-38v-4h9v-2h36zM594 231h-39v-13h39v13zM826 1116v15h-36v-15h36zM826 665v13h-4v1h-32v-14h36zM905 783v-31h17v31h-17zM714 196v7h-70v-7h70zM458 516v4h-7v5h7v18h-18v3h-5v-6h14v-9h-14v-15h23z
M613 582v8h-58v-8h58zM613 593v8h-58v-8h58zM124 531v-15h34v15h-34zM318 571v10h-50v-10h50zM99 270h-21v-12h43v12h-12v-3h-10v3zM524 727h-22v-12h42v12h-10v-3h-10v3zM524 280h-22v-12h42v12h-10v-3h-10v3zM399 1107v13h-33v-13h33zM399 1088v13h-33v-13h33zM399 637v13
h-33v-13h33zM840 931v18h-45v-2h38v-9h-38v-4h9v-3h36zM696 204h18v27h-18v-27zM458 969v4h-7v6h7v15h-23v-2h14v-7h-14v-16h23zM399 655v12h-3v1h-30v-13h33zM659 337h-15v-33h15v33zM403 726v8h-42v-13h19v5h23zM555 659v-12h39v12h-17v-3h-7v3h-15zM185 800h-26v-13h38
v13h-5v-8h-7v8zM262 727h12v-6h18v13h-43v-7h7v-6h6v6zM271 221v-25h18v25h-18zM740 582v8h-54v-8h54zM659 231h-15v-27h35v4h-20v23zM239 639h16v-2h10v6h-9v7h-35v-13h18v2zM235 773h-14v-31h14v31zM758 1131h-34v-15h34v15zM610 362h-27v-13h39v13h-5v-8h-7v8zM335 1035
v9h-53v-9h53zM818 870v-17h26v17h-26zM391 410v-16h26v16h-26zM99 717h-21v-11h43v11h-12v-3h-10v3zM826 1098v12h-36v-12h36zM826 647v12h-36v-12h36zM629 611v6h-60v-3h-4v3h-10v-6h58v1h7v-1h9zM684 289h12v-7h18v14h-43v-7h8v-7h5v7zM333 328h26v13h-26v-3h-10v-8h10v-2
zM458 282v4h-28v-4h-12v-8h40v6h-5v2h5zM403 279v7h-42v-12h19v5h23zM391 859v-15h26v15h-26zM818 420v-16h26v16h-26zM610 808h-27v-12h39v12h-5v-7h-7v7zM262 280h12v-6h18v12h-43v-6h7v-6h6v6zM857 292h-12v-10h34v14h-22v-4zM826 1044v9h-41v-9h41zM399 583v10h-38v-10
h38zM399 1024v10h-38v-10h38zM399 571v10h-38v-10h38zM734 337h-12v-33h12v33zM495 328h-14v-24h14v24zM639 1053v-9h40v9h-40zM274 522v-6h22v15h-28v-9h6zM300 773v-31h12v31h-12zM300 328v-33h12v33h-12zM758 1098v12h-34v-12h34zM651 1088h-62v-6h62v6zM684 738h12v-8
h18v12h-43v-4h8v-8h5v8zM679 1126h8v-10h10v15h-31v-15h13v10zM343 298l-2 -103h3l3 103h-4zM538 637h-57v-8h2v7h17v-7h38v8zM430 454v-12h28v12h-28zM463 794v-77h4v77h-4zM714 752v8h-43v-8h43zM99 907h-14v-26h14v26zM99 454h-14v-24h14v24zM758 337h24v12h-24v-2h-13
v-6h13v-4zM418 256v-9h40v9h-40zM476 221h-60v-3h69v13h-7zM758 337h-13v-33h13v33zM594 337h-11v-33h11v33zM96 699h3v-2h22v7h-43v-7h18v2zM96 251h3v-4h22v9h-43v-9h18v4zM447 598v-13h24v13h-24zM130 454v-12h27v12h-27zM318 1024v10h-36v-10h36zM738 871v-12h31v12h-31
zM738 421v-12h31v12h-31zM316 410v-12h28v12h-28zM249 464v-7h47v7h-47zM388 319v-18h21v18h-21zM399 1035v9h-38v-9h38zM826 593v8h-41v-8h41zM905 574v-21h17v21h-17zM826 582v8h-41v-8h41zM361 565v-8h38v8h-38zM147 650h-17v-13h28v13h-5v-3h-6v3zM502 1045h24v-1h12v9
h-38v-9h2v1zM865 206h6v-2h18v10h-36v-10h12v2zM333 328h-10v-33h10v33zM99 773h-21v-15h21v15zM99 328h-21v-16h21v16zM333 773h-10v-31h10v31zM130 1034v-10h35v10h-35zM78 585h25v-2h11v10h-38v-10h2v2zM740 611v6h-54v-6h54zM679 1110h-13v-12h31v12h-10v-6h-8v6z
M197 784h-38v-9h38v9zM224 1101h-10v-13h25v13h-14v-11h-1v11zM758 608h-6v-1h-12v1h-54v-4h72v4zM219 985v-16h20v16h-20zM734 231h-12v-27h12v27zM524 463h-14v-23h14v23zM524 917h-14v-24h14v24zM196 1120h-17v-13h29v13h-1v-6h-11v6zM185 353h-19v-12h31v12h-5v-9h-7v9z
M758 1044v9h-35v-9h35zM391 618v10h-30v-10h30zM544 337h-10v-33h10v33zM316 861v-11h28v11h-28zM622 337h-10v-33h10v33zM879 552h-17v-1h14v-11h-14v-15h17v27zM333 598v1h-3v-1h-12v1h-50v-5h67v4h-2zM349 700v-6h-4v21h-3v-21h-9v-4h9v-3h3v3h4v-9h2v9h8v4h-8v6h-2z
M310 221h-12v-25h12v25zM149 773h-19v-15h19v15zM149 328h-19v-16h19v16zM862 1006v-4h14v-10h-14v-13h17v25h-12v2h-5zM430 907v-11h28v11h-28zM458 730v4h-28v-5h-12v-8h6v6h25v-6h9v6h-5v3h5zM671 473v-6h49v6h-49zM671 926v-6h49v6h-49zM274 647h-6v-10h24v13h-18v-3z
M544 679h-20v-14h20v14zM169 221h-41v-7h41v7zM826 1034v7h-41v-7h41zM502 594h24v-1h12v8h-38v-8h2v1zM361 1016v-7h38v7h-38zM130 1044v-9h35v9h-35zM130 1079v-8h35v8h-35zM249 917v-6h47v6h-47zM555 1053v-9h30v9h-30zM99 734h-21v-13h21v13zM333 1048v3h-3v-3h-12v3
h-36v-6h53v3h-2zM524 362h-22v-13h22v13zM524 296h-22v-14h22v14zM305 464v-7h39v7h-39zM185 454h-21v-12h21v12zM594 196v7h-39v-7h39zM594 204v8h-39v-8h39zM130 907v-11h27v11h-27zM555 917v-11h26v11h-26zM555 463v-10h26v10h-26zM121 668h-22v-13h22v13zM99 800h-21
v-13h21v13zM78 1036h25v-1h11v9h-38v-9h2v1zM613 604v4h-58v-4h58zM922 942v15h-17v-15h17zM879 403h-22v-6h19v-10h-19v-5h22v21zM37 215h4v-1h18v7h-40v-7h18v1zM235 454h-19v-8h-7v-4h26v12zM622 794h-39v-7h39v7zM233 221h-14v-7h10v-12h-10v-6h34v2h-20v23zM643 1036
v-2h36v7h-40v-5h4zM185 531h-19v-15h19v15zM391 1071v8h-30v-8h30zM818 629v8h-33v-8h33zM175 1120h-21v-13h21v13zM128 1120h-20v-13h20v13zM922 1026h-17v-10h11v-18h6v28zM544 231h-20v-13h20v13zM538 1088h-57v-6h2v5h17v-5h38v6zM130 628v-10h28v10h-28zM130 581v-10
h28v10h-28zM130 593v-10h28v10h-28zM185 985h-16v-16h16v16zM197 338h-31v-8h31v8zM524 808h-22v-12h22v12zM524 742h-22v-12h22v12zM99 353h-21v-12h21v12zM99 286h-21v-12h21v12zM714 679h-18v-14h18v14zM520 679h-18v-14h18v14zM524 783h-22v-13h22v13zM380 800h-19v-13
h19v13zM130 800v-13h19v13h-19zM149 734h-19v-13h19v13zM555 362v-13h19v13h-19zM574 296h-19v-14h19v14zM379 963v-8h27v8h-27zM475 1116v4h-26v-13h26v3h-17v6h17zM81 1134h6v-8h13v10h-31v-10h12v8zM785 574v-6h41v6h-41zM785 1026v-6h41v6h-41zM169 196v6h-41v-6h41z
M71 328h-16v-16h16v16zM520 709h4v-3h20v6h-42v-6h18v3zM71 773h-16v-15h16v15zM318 601v5h-50v-5h50zM296 565h-28v-8h28v8zM348 803v-16h-5v-14h5v-6h5v6h1v14h-1v16h-5zM520 262h4v-4h20v6h-42v-6h18v4zM20 1091h24v-3h4v12h-29v-12h1v3zM210 773h-9v-15h7v-9h-7v-7h9v31
zM727 926v-6h42v6h-42zM727 473v-6h42v6h-42zM292 668h-18v-13h18v13zM96 668h-18v-13h18v13zM803 362h-18v-13h18v13zM803 296h-18v-14h18v14zM305 917v-6h39v6h-39zM333 1071v8h-15v-1h-4v1h-9v-8h28zM639 1060v-6h40v6h-40zM520 231h-18v-13h18v13zM879 852h-22v-6h19
v-10h-19v-4h22v20zM626 337v-33h8v33h-8zM185 907h-21v-11h21v11zM610 463h-22v-10h22v10zM610 917h-22v-11h22v11zM879 463h-22v-10h22v10zM879 917h-22v-11h22v11zM887 337h-7v-33h7v33zM380 353h-19v-12h19v12zM380 270h-19v-12h19v12zM555 808v-12h19v12h-19zM555 742
v-12h19v12h-19zM149 286h-19v-12h19v12zM130 353v-12h19v12h-19zM538 611v6h-38v-6h38zM538 1054v6h-38v-6h38zM555 727v-12h19v12h-19zM574 280h-19v-12h19v12zM149 270h-19v-12h19v12zM622 347h-39v-6h39v6zM613 1044v9h-24v-9h24zM574 783h-19v-13h19v13zM785 460v-7h9
v20h-12v-13h3zM235 328h-14v-16h14v16zM235 907h-19v-8h-7v-3h26v11zM534 938v-4h47v4h-47zM391 1048v3h-30v-6h38v3h-8zM818 1058v2h-33v-6h41v4h-8zM457 832v12h-27v-7h19v-5h8zM457 382v12h-27v-7h19v-5h8zM857 740h-12v-10h6v6h25v-6h3v12h-22v-2zM361 452v-10h8v22h-10
v-12h2zM114 1045v6h-38v-6h38zM245 1079v-8h26v8h-26zM659 463h-20v-9h-5v-1h25v10zM659 917h-20v-9h-5v-2h25v11zM476 1136v-3h88v3h-88zM475 1133v3h-26v-10h26v5h-17v2h17zM189 571v10h-23v-10h23zM189 583v10h-23v-10h23zM714 783h-18v-13h18v13zM555 1041v-7h30v7h-30z
M803 808h-18v-12h18v12zM803 742h-18v-12h18v12zM887 783h-7v-31h7v31zM803 280h-18v-12h18v12zM696 280v-12h18v12h-18zM696 727v-12h18v12h-18zM274 270v-12h18v12h-18zM643 1026v-6h36v6h-36zM785 914v-8h9v20h-12v-12h3zM758 202v1h-13v-7h36v6h-23zM697 1088h-31v-6h37
v6h-3v-4h-3v4zM130 1051v-6h35v6h-35zM99 295v10h-21v-10h21zM604 1131h-15v-15h15v15zM659 679h-15v-14h15v14zM149 717h-19v-11h19v11zM333 1088v13h-15v-13h15zM333 1120h-15v-13h15v13zM124 546v-6h34v6h-34zM720 574h-34v-6h34v6zM361 905v-9h8v21h-10v-12h2zM887 552
h-7v-27h7v27zM128 1136h-20v-10h20v10zM524 973h-5v-39h5v39zM524 520h-5v-41h5v41zM175 1136h-21v-10h21v10zM189 1024v10h-20v-10h20zM818 1082v6h-33v-6h33zM274 717v-11h18v11h-18zM818 611v6h-33v-6h33zM571 1131v-15h14v15h-14zM66 1120h-15v-13h15v13zM235 668h-14
v-13h14v13zM380 717h-19v-7h5v-4h14v11zM225 1120v-13h14v13h-14zM887 1004h-7v-25h7v25zM524 403h-27v-6h27v6zM235 734h-14v-13h14v13zM659 296h-15v-14h15v14zM851 1126v5h-18v-15h11v10h7zM727 938v-4h42v4h-42zM305 942v-5h39v5h-39zM727 496v-5h42v5h-42zM130 844v-7
h27v7h-27zM555 403v-6h26v6h-26zM629 1063v4h-40v-4h40zM121 773h-12v-15h12v15zM159 773v-15h12v15h-12zM121 328h-12v-16h12v16zM758 1082v6h-34v-6h34zM803 727h-18v-6h5v-6h13v12zM45 270v-12h16v12h-16zM155 391h2v3h-27v-7h25v4zM818 607v1h-33v-4h41v3h-8zM391 598v1
h-30v-5h38v4h-8zM204 601v5h-38v-5h38zM149 295v10h-19v-10h19zM703 1053h-19v-9h19v9zM538 1063v4h-38v-4h38zM538 604v4h-38v-4h38zM851 673v6h-6v-1h-12v-13h11v8h7zM26 784h-7v-26h7v26zM524 752v8h-22v-8h22zM99 844h-25v-7h25v7zM99 394h-25v-7h25v7zM99 784h-21v-9
h21v9zM99 338h-21v-8h21v8zM555 1060v-6h30v6h-30zM555 1088v-6h30v6h-30zM547 1006v-4h38v4h-38zM114 1052v5h-38v-5h38zM114 594v5h-38v-5h38zM114 601v5h-38v-5h38zM538 582v8h-12v-5h-24v5h-2v-8h38zM114 571v10h-11v-7h-25v7h-2v-10h38zM100 1120h-13v-13h13v13z
M147 1120h-13v-13h13v13zM384 519v-10h15v10h-15zM296 546h-28v-6h28v6zM659 783h-15v-13h15v13zM643 1006v-4h36v4h-36zM613 1034v7h-24v-7h24zM828 288v8h-24v-8h24zM828 735v7h-24v-7h24zM109 928v-4h48v4h-48zM109 475v-4h48v4h-48zM659 742h-15v-12h15v12zM235 286h-14
v-12h14v12zM235 270h-14v-12h14v12zM659 280h-15v-12h15v12zM734 679h-12v-14h12v14zM318 1052v5h-36v-5h36zM604 1110h-15v-12h15v12zM910 214h-18v-10h18v10zM189 1035v9h-20v-9h20zM189 565h-23v-8h19v6h4v2zM758 231h-13v-16h13v16zM256 1101h-11v-13h14v7h-3v6z
M534 483v-4h47v4h-47zM45 717v-11h16v11h-16zM61 733h6v-12h4v13h-16v-10h-10v-3h16v12zM422 558v-69h2v69h-2zM758 1060h-6v-2h-12v2h-17v-6h35v6zM59 198v4h-18v-6h31v6h-7v-4h-6zM204 1052v5h-35v-5h20v1h7v-1h8zM574 752v8h-19v-8h19zM196 1126v10h-17v-10h17zM458 423
v3h-28v-6h27v3h1zM130 256v-9h19v9h-19zM130 338v-8h19v8h-19zM149 704h-19v-7h19v7zM130 784v-9h19v9h-19zM581 494h-34v-5h34v5zM538 1034v7h-12v-5h-24v5h-2v-7h38zM380 338h-19v-8h19v8zM380 784h-19v-9h19v9zM380 256h-19v-9h19v9zM349 618v-44h4v44h-4zM81 1120h-12
v-13h12v13zM524 852h-27v-6h27v6zM312 668h-12v-13h12v13zM49 668v-13h12v13h-12zM300 734v-13h12v13h-12zM722 296v-14h12v14h-12zM555 852v-6h26v6h-26zM312 650h-12v-13h12v13zM121 800h-12v-13h12v13zM159 734v-13h12v13h-12zM121 734h-12v-13h12v13zM130 426v-6h27v6
h-27zM235 426h-26v-6h26v6zM121 454h-12v-12h12v12zM130 1057v-5h35v5h-20v-3h-4v3h-11zM424 1116v4h-18v-13h10v9h8zM99 742v7h-21v-7h21zM331 221h-11v-14h11v14zM639 1067v-4h40v4h-13v-2h-15v2h-12zM256 1116h3v4h-14v-13h11v9zM185 844h-21v-7h21v7zM157 938h-33v-4h33
v4zM610 403h-22v-6h22v6zM157 484h-33v-5h33v5zM818 1063v4h-33v-4h33zM391 1052v5h-30v-5h30zM391 601v5h-30v-5h30zM887 403h-7v-21h7v21zM524 794h-22v-7h22v7zM758 679h-13v-14h13v14zM274 256v-9h18v9h-18zM274 338v-8h18v8h-18zM274 704v-7h18v7h-18zM274 784v-9h18v9
h-18zM317 516v-18h8v18h-8zM333 1126v10h-15v-10h15zM610 556h-63v-3h63v3zM71 295v10h-16v-10h16zM210 328h-9v-16h9v16zM851 214h-15v-10h15v10zM271 1034h-15v-10h15v10zM130 238v-4h41v4h-41zM130 688v-3h41v3h-41zM887 852h-7v-20h7v20zM124 998v-2h41v2h-41zM185 394
h-21v-3h2v-4h19v7zM114 1024v10h-11v-8h-25v8h-2v-10h38zM121 353h-12v-12h12v12zM121 286h-12v-12h12v12zM300 286v-12h12v12h-12zM722 783v-13h12v13h-12zM722 742v-12h12v12h-12zM734 659h-12v-12h12v12zM613 1054v6h-24v-6h24zM722 727v-12h12v12h-12zM722 280v-12h12
v12h-12zM300 270v-12h12v12h-12zM727 483v-4h42v4h-42zM305 486v-3h39v3h-39zM305 475v-4h39v4h-39zM99 510h-3v-39h3v39zM583 296v-14h11v14h-11zM333 668h-10v-13h10v13zM333 734h-10v-13h10v13zM758 296h-13v-14h13v14zM333 637v13h-10v-13h10zM81 426h-7v-6h25v6h-14v-3
h-4v3zM424 665v3h-6v-1h-12v-12h10v10h8zM305 928v-4h39v4h-39zM99 962h-3v-38h3v38zM60 800h-5v-13h16v7h-11v6zM49 1136v-2h2v-8h15v10h-17zM495 752v8h-14v-8h14zM555 794v-7h19v7h-19zM259 1136h-14v-10h14v10zM225 1136v-10h14v10h-14zM703 1041h-19v-7h19v7zM235 295
v10h-14v-10h14zM149 742v7h-19v-7h19zM324 885v-11h14v11h-14zM555 1067v-4h30v4h-16v-2h-4v2h-10zM790 210h8v-6h6v10h-19v-10h5v6zM130 599v-5h28v5h-28zM430 938v-4h28v4h-28zM430 886v-5h28v5h-28zM430 484v-5h28v5h-28zM71 338h-16v-8h16v8zM643 540v-15h8v15h-8z
M71 784h-16v-9h16v9zM196 985v-16h8v16h-8zM620 540v-15h9v15h-9zM271 1044h-15v-9h15v9zM613 1026h-24v-6h21v3h3v3zM678 637h-16v-8h16v8zM678 601h-16v-8h16v8zM678 590h-16v-8h16v8zM197 328h-8v-16h8v16zM197 773h-8v-15h8v15zM758 280h-13v-12h13v12zM25 844h-6v-24h6
v24zM333 270h-10v-12h10v12zM249 500v-6h21v6h-21zM249 951v-4h21v4h-21zM185 426h-21v-6h21v6zM458 873v2h-28v-5h27v3h1zM610 852h-22v-6h22v6zM300 717v-11h12v11h-12zM524 347h-22v-6h22v6zM583 742v-12h11v12h-11zM583 727v-12h11v12h-11zM159 717v-11h12v11h-12z
M583 280v-12h11v12h-11zM803 794h-18v-7h18v7zM696 794v-7h18v7h-18zM758 742h-13v-12h13v12zM333 286h-10v-12h10v12zM121 907h-12v-11h12v11zM758 647v12h-13v-12h13zM844 1098v12h-11v-12h11zM758 727h-13v-12h13v12zM844 647v12h-11v-12h11zM93 221h-18v-7h18v7z
M189 1016h-20v-7h16v5h4v2zM583 783v-13h11v13h-11zM758 783h-13v-13h13v13zM889 196v7h-18v-7h18zM910 196v7h-18v-7h18zM442 1082v-6h19v6h-19zM235 875h-26v-5h26v5zM544 362h-10v-13h10v13zM224 1120h-10v-13h10v13zM555 886v-5h26v5h-26zM130 875v-5h27v5h-27zM622 296
h-10v-14h10v14zM235 886h-26v-5h26v5zM130 886v-5h27v5h-27zM201 734v-13h9v13h-9zM416 1088v13h-10v-13h10zM524 387h-27v-5h27v5zM147 1136h-13v-10h13v10zM778 796h-9v-13h9v13zM555 434v-5h26v5h-26zM416 637v13h-10v-13h10zM210 650h-9v-13h9v13zM544 296h-10v-14h10
v14zM314 1101h-9v-13h9v13zM314 1120h-9v-13h9v13zM826 214h-13v-10h13v10zM622 231h-10v-13h10v13zM473 280v-6h11v-4h-11v-2h12v12h-12zM473 727v-6h11v-4h-11v-2h12v12h-12zM130 606v-5h28v5h-13v-2h-4v2h-11zM219 546v-6h20v6h-20zM60 353h-5v-12h16v6h-11v6zM25 394h-6
v-20h6v20zM189 1045v6h-20v-6h20zM495 794h-14v-7h14v7zM740 1034v7h-17v-7h17zM659 434h-25v-5h25v5zM506 434h-9v-5h27v5h-14v-1h-4v1zM581 518h-34v-4h34v4zM235 338h-14v-8h14v8zM99 825h-25v-5h25v5zM581 947h-34v-4h34v4zM380 704h-14v-7h14v7zM905 794v-7h17v7h-17z
M495 337h-14v-7h14v7zM235 256h-14v-9h14v9zM235 784h-14v-9h14v9zM506 886h-9v-5h27v5h-14v-1h-4v1zM495 783h-14v-8h14v8zM196 531v-15h8v15h-8zM659 752v8h-15v-8h15zM659 886h-25v-5h25v5zM333 717h-10v-11h10v11zM306 859h-32v-3h32v3zM728 418h-32v-3h32v3zM81 875h-7
v-5h25v5h-14v-1h-4v1zM728 868h-32v-4h32v4zM306 409h-32v-4h32v4zM622 280h-10v-12h10v12zM574 264h-19v-6h19v6zM622 659h-10v-12h10v12zM201 270v-12h9v12h-9zM622 783h-10v-13h10v13zM622 742h-10v-12h10v12zM544 808h-10v-12h10v12zM555 347v-6h19v6h-19zM703 1060h-19
v-6h19v6zM185 546h-19v-6h19v6zM239 1034h-12v-10h12v10zM121 295v10h-12v-10h12zM216 593v-10h12v10h-12zM544 783h-10v-13h10v13zM544 742h-10v-12h10v12zM201 286v-12h9v12h-9zM619 679h-7v-14h10v6h-3v6h-2v1h2v1zM703 1026h-19v-6h19v6zM622 727h-10v-12h10v12z
M574 712h-19v-6h19v6zM71 742v7h-16v-7h16zM271 1016h-15v-7h15v7zM851 196v7h-15v-7h15zM197 734h-8v-13h8v13zM196 454v-12h8v12h-8zM620 992v-13h9v13h-9zM197 650h-8v-13h8v13zM189 594v5h-23v-5h23zM696 264v-6h18v6h-18zM696 347v-6h18v6h-18zM696 712v-6h18v6h-18z
M37 196v6h-18v-6h18zM803 347h-18v-6h18v6zM93 196v6h-18v-6h18zM803 264h-18v-6h18v6zM476 668v-3h9v14h-7v-6h6v-5h-8zM61 286h-6v-9h-10v-3h16v12zM219 575v-4h9v10h-12v-6h3zM185 886h-21v-5h21v5zM610 886h-22v-5h22v5zM610 387h-22v-5h22v5zM879 938h-22v-4h22v4z
M659 794h-15v-7h15v7zM879 494h-22v-5h22v5zM201 717v-11h9v11h-9zM185 825h-21v-5h21v5zM610 494h-22v-5h22v5zM544 917h-10v-11h10v11zM296 1016h-14v-7h14v7zM185 875h-21v-5h21v5zM185 484h-21v-5h21v5zM879 886h-22v-5h22v5zM185 938h-21v-4h21v4zM610 938h-22v-4h22v4
zM879 434h-22v-5h22v5zM265 628h-10v-10h10v10zM544 463h-10v-10h10v10zM265 593h-10v-10h10v10zM265 581h-10v-10h10v10zM758 214h-13v-10h13v10zM610 434h-22v-5h22v5zM197 270h-8v-12h8v12zM61 704h-12v-7h12v7zM905 347v-6h17v6h-17zM121 784h-12v-9h12v9zM159 704v-7
h12v7h-12zM300 338v-8h12v8h-12zM121 338h-12v-8h12v8zM734 752v8h-12v-8h12zM239 1044h-12v-9h12v9zM495 347h-14v-6h14v6zM159 256v-9h12v9h-12zM197 286h-8v-12h8v12zM336 729v-8h12v8h-12zM300 256v-9h12v9h-12zM196 668h-7v-13h8v7h-1v4h-2v1h2v1zM300 704v-7h12v7h-12
zM300 784v-9h12v9h-12zM639 601v-8h12v8h-12zM458 510h-9v-3h-14v-3h23v6zM430 475v-4h28v4h-28zM430 434v-4h28v4h-28zM495 356h-11v-3h-3v-4h14v7zM495 803h-11v-3h-3v-4h14v7zM430 928v-4h28v4h-28zM60 426h-5v-21h5v21zM610 1006h-21v-4h21v4zM284 1101h-2v-13h8v13h-2
v-4h-4v4zM124 994v-2h41v2h-41zM671 509v-5h20v5h-20zM671 961v-5h20v5h-20zM74 668h-7v-13h7v13zM555 896v-3h26v3h-26zM235 409h-26v-4h26v4zM555 696v-3h39v3h-39zM235 859h-26v-3h26v3zM130 859v-3h27v3h-27zM524 868h-27v-4h27v4zM555 418v-3h26v3h-26zM524 836h-27v-4
h27v4zM524 418h-27v-3h27v3zM555 868v-4h26v4h-26zM626 296v-14h8v14h-8zM727 949v-2h42v2h-42zM130 434v-4h27v4h-27zM887 362h-7v-13h7v13zM634 231h-8v-13h8v13zM555 247v-2h39v2h-39zM26 800h-7v-13h7v13zM130 409v-4h27v4h-27zM235 434h-26v-4h26v4zM826 196v7h-13v-7
h13zM271 1051h-15v-6h15v6zM678 574h-16v-6h16v6zM678 617h-16v-6h16v6zM555 387v-5h19v5h-19zM245 1034v-10h10v10h-10zM130 825v-5h19v5h-19zM703 1067h-19v-4h19v4zM314 1136h-9v-10h9v10zM416 618v10h-10v-10h10zM643 585v-3h8v8h-12v-5h4zM224 1136h-10v-10h10v10z
M60 875h-5v-19h5v19zM484 886h-3v-5h2v-6h-2v-5h1v-6h2v22zM210 295v10h-9v-10h9zM703 1006h-19v-4h19v4zM197 717h-8v-11h8v11zM196 907v-11h8v11h-8zM844 629v8h-11v-8h11zM659 896h-25v-3h25v3zM333 704h-10v-7h10v7zM265 565h-10v-8h10v8zM620 463v-10h9v10h-9zM758 752
v8h-13v-8h13zM99 859h-25v-3h25v3zM323 775h10v9h-10v-9zM620 917v-11h9v11h-9zM659 418h-25v-3h25v3zM659 868h-25v-4h25v4zM207 662h-6v-7h9v13h-3v-6zM333 256h-10v-9h10v9zM594 752v8h-11v-8h11zM99 409h-25v-4h25v4zM99 378h-25v-4h25v4zM267 1095h-4v-7h8v13h-4v-6z
M483 553v12h-7v-12h7zM121 394h-12v-7h12v7zM458 962h-9v-2h-14v-3h23v5zM696 518v-4h24v4h-24zM497 679h-6v-14h6v14zM121 742v7h-12v-7h12zM659 347h-15v-6h15v6zM644 727v-12h7v12h-7zM626 727v-12h8v12h-8zM219 1027v-3h7v10h-10v-7h3zM484 434h-3v-4h2v-4h-2v-6h1v-5h2
v19zM239 1016h-12v-7h12v7zM626 742v-12h8v12h-8zM659 264h-15v-6h15v6zM722 794v-7h12v7h-12zM626 783v-13h8v13h-8zM626 280v-12h8v12h-8zM26 353h-7v-12h7v12zM171 742v7h-12v-7h12zM865 196v7h-12v-7h12zM679 969h-36v-2h36v2zM887 808h-7v-12h7v12zM97 221v-7h12v7h-12
zM121 844h-12v-7h12v7zM734 196v7h-12v-7h12zM826 1133v3h-36v-3h36zM520 207v5h-18v-5h18zM634 659h-8v-12h8v12zM761 1132v-6h17v5h-13v1h-4zM787 421h-5v-12h5v6h7v3h-7v3zM256 960h-37v-3h37v3zM857 1051h1v-7h9v9h-10v-2zM787 871h-5v-12h5v5h7v4h-7v3zM256 507h-37v-3
h37v3zM201 704v-7h9v7h-9zM629 1044v9h-9v-9h9zM204 583v10h-8v-10h8zM204 1024v10h-8v-10h8zM201 784v-9h9v9h-9zM201 338v-8h9v8h-9zM440 571v10h-8v-10h8zM201 256v-9h9v9h-9zM416 1071v8h-10v-8h10zM263 1136v-10h8v10h-8zM219 565v-8h9v8h-9zM622 752v8h-10v-8h10z
M204 571v10h-8v-10h8zM216 1044v-9h10v9h-10zM245 1044v-9h10v9h-10zM922 941h-17v-5h17v5zM581 969h-34v-2h34v2zM440 1024v10h-8v-10h8zM720 556h-34v-3h34v3zM740 1063v4h-17v-4h17zM197 295v10h-8v-10h8zM544 752v8h-10v-8h10zM497 231h-6v-13h6v13zM922 997h-6v-13h6
v13zM803 712h-13v-6h13v6zM879 896h-22v-3h22v3zM879 868h-22v-4h22v4zM185 928h-21v-4h21v4zM610 947h-22v-4h22v4zM610 836h-22v-4h22v4zM879 418h-22v-3h22v3zM185 409h-21v-4h21v4zM610 868h-22v-4h22v4zM121 238h-22v-4h22v4zM745 787h13v7h-13v-7zM610 483h-22v-4h22
v4zM610 418h-22v-3h22v3zM185 434h-21v-4h21v4zM121 688h-22v-3h22v3zM879 947h-22v-4h22v4zM185 859h-21v-3h21v3zM879 483h-22v-4h22v4zM185 475h-21v-4h21v4zM610 896h-22v-3h22v3zM887 917h-7v-11h7v11zM267 1116v-9h4v13h-8v-4h4zM155 960h-31v-3h31v3zM610 552h-63v-1
h63v1zM697 1136h-31v-3h31v3zM271 1057h-15v-5h15v5zM678 608h-16v-4h16v4zM171 328h-5v-16h5v16zM758 1133v3h-34v-3h34zM155 507h-31v-3h31v3zM857 599h1v-6h9v8h-10v-2zM630 671h-4v-6h8v14h-4v-8zM25 1057h-6v-12h6v12zM722 712v-6h12v6h-12zM109 196v6h-12v-6h12z
M485 712h-9v-6h9v6zM121 426h-12v-6h12v6zM722 264v-6h12v6h-12zM722 347v-6h12v6h-12zM239 1051h-12v-6h12v6zM25 606h-6v-12h6v12zM743 838v-6h15v6h-15zM639 617v-6h12v6h-12zM845 727v-12h6v12h-6zM629 593v8h-9v-8h9zM204 1035v9h-8v-9h8zM867 582v8h-9v-8h9zM197 704
h-8v-7h8v7zM629 582v8h-9v-8h9zM197 256h-8v-9h8v9zM282 1079v-8h8v8h-8zM196 565v-8h8v8h-8zM245 1016v-7h10v7h-10zM130 378v-4h19v4h-19zM362 410h-3v-12h3v7h7v4h-7v1zM208 221h-10v-7h10v7zM622 204v8h-10v-8h10zM337 1122v-6h17v4h-13v2h-4zM380 844h-9v-7h9v7z
M430 825v-5h15v5h-15zM380 394h-9v-7h9v7zM380 238h-19v-4h19v4zM555 836v-4h19v4h-19zM544 403h-10v-6h10v6zM418 238v-4h19v4h-19zM544 794h-10v-7h10v7zM185 378h-19v-4h19v4zM622 196v7h-10v-7h10zM922 214h-8v-10h8v10zM887 463h-7v-10h6v8h1v2zM475 1098v3h-26v-3h26z
M876 518h-14v-4h17v6h-3v-2zM362 861h-3v-11h3v6h7v3h-7v2zM265 546h-10v-6h10v6zM844 1082v6h-11v-6h11zM758 264h-13v-6h13v6zM221 717v-11h6v11h-6zM78 238v-4h18v4h-18zM274 688v-3h18v3h-18zM583 264v-6h11v6h-11zM418 717v-11h6v11h-6zM583 712v-6h11v6h-11zM844 611
v6h-11v-6h11zM844 1054v6h-11v-6h11zM274 238v-4h18v4h-18zM758 712h-13v-6h13v6zM78 688v-3h18v3h-18zM555 442v-2h26v2h-26zM171 650h-5v-13h5v13zM430 589h2v-6h8v7h-10v-1zM495 773h-14v-3h14v3zM634 752v8h-8v-8h8zM185 998h-16v-2h16v2zM195 221h-9v-7h9v7zM785 403
v-6h9v6h-9zM803 403h-8v-6h8v6zM196 1016v-7h8v7h-8zM197 742v7h-8v-7h8zM679 518h-17v-4h17v4zM867 1034v7h-9v-7h9zM361 844v-7h8v7h-8zM629 1034v7h-9v-7h9zM659 442h-25v-2h25v2zM361 394v-7h8v7h-8zM121 886h-12v-5h12v5zM867 611v6h-10v-6h10zM239 1057h-12v-5h12v5z
M544 852h-10v-6h10v6zM696 969v-2h24v2h-24zM544 347h-10v-6h10v6zM622 264h-10v-6h10v6zM440 1045v6h-10v-6h10zM216 606v-5h12v5h-12zM216 1051v-6h10v6h-10zM416 1045v6h-10v-6h10zM171 286h-5v-12h5v12zM867 1054v6h-10v-6h10zM322 825v-5h11v5h-11zM208 196v6h-10v-6
h10zM380 426h-9v-6h9v6zM622 712h-10v-6h10v6zM171 270h-5v-12h5v12zM245 1051v-6h10v6h-10zM25 593h-6v-10h6v10zM485 247h-21v-2h21v2zM216 599v-5h12v5h-12zM782 496v-5h12v5h-12zM782 938v-4h12v4h-12zM639 608v-4h12v4h-12zM121 875h-12v-5h12v5zM121 825h-12v-5h12v5z
M271 998h-15v-2h15v2zM790 196v7h-5v-1h-3v-6h8zM274 960v-3h22v3h-22zM274 507v-3h22v3h-22zM728 917h-1v-15h7v6h-6v9zM359 942v-5h10v5h-10zM844 1063v4h-11v-4h11zM296 998h-14v-2h14v2zM922 196v7h-8v-7h8zM879 442h-22v-2h22v2zM380 688h-14v-3h14v3zM634 196v7h-8v-7
h8zM610 442h-22v-2h22v2zM630 1136v-3h21v3h-21zM235 688h-14v-3h14v3zM634 204v8h-8v-8h8zM235 238h-14v-4h14v4zM626 794v-7h8v7h-8zM331 196v5h-11v-5h11zM430 378v-4h15v4h-15zM219 1016v-7h7v7h-7zM72 221h-7v-7h7v7zM306 454h-1v-13h8v5h-7v8zM265 599h-10v-5h10v5z
M844 604v4h-11v-4h11zM430 1040h2v-5h8v6h-10v-1zM887 794h-7v-7h7v7zM265 606h-10v-5h10v5zM204 1045v6h-8v-6h8zM221 704v-7h6v7h-6zM620 574v-6h9v6h-9zM418 704v-7h6v7h-6zM339 1098v-5h9v5h-9zM643 574v-6h8v6h-8zM204 546h-8v-6h8v6zM620 1026v-6h9v6h-9zM25 1044h-6
v-9h6v9zM306 907h-1v-13h8v5h-7v8zM629 1054v6h-9v-6h9zM803 852h-8v-6h8v6zM361 426v-6h8v6h-8zM785 852v-6h9v6h-9zM195 196v6h-9v-6h9zM876 969h-14v-2h17v6h-3v-4zM544 696h-20v-3h20v3zM544 247h-20v-2h20v2zM56 571v10h-5v-10h5zM416 1052v5h-10v-5h10zM440 594v5h-10
v-5h10zM216 1057v-5h10v5h-10zM416 601v5h-10v-5h10zM867 604v4h-10v-4h10zM544 886h-10v-5h10v5zM245 1057v-5h10v5h-10zM416 594v5h-10v-5h10zM56 583v10h-5v-10h5zM544 387h-10v-5h10v5zM440 601v5h-10v-5h10zM867 1063v4h-10v-4h10zM764 1107v-5h9v5h-9zM544 434h-10v-5
h10v5zM56 1024v10h-5v-10h5zM440 1052v5h-10v-5h10zM171 295v10h-5v-10h5zM728 463h-1v-12h7v3h-6v9zM485 282v4h-9v-4h9zM300 238v-4h12v4h-12zM804 196v7h-6v-7h6zM430 409v-4h12v4h-12zM696 247v-2h18v2h-18zM502 247v-2h18v2h-18zM803 247h-18v-2h18v2zM887 347h-7v-6h7
v6zM121 859h-12v-3h12v3zM71 270h-4v-12h4v12zM118 221h-6v-7h6v7zM626 264v-6h8v6h-8zM495 280h-4v-12h4v12zM71 286h-4v-12h4v12zM887 973h-7v-6h7v6zM121 378h-12v-4h12v4zM887 520h-7v-6h7v6zM300 688v-3h12v3h-12zM430 859v-3h12v3h-12zM782 483v-4h12v4h-12zM61 688
h-12v-3h12v3zM121 434h-12v-4h12v4zM851 1133v3h-18v-3h18zM485 730v4h-9v-4h9zM495 727h-4v-12h4v12zM239 998h-12v-2h12v2zM626 347v-6h8v6h-8zM626 712v-6h8v6h-8zM502 696v-3h18v3h-18zM121 409h-12v-4h12v4zM644 712v-6h7v6h-7zM696 696v-3h18v3h-18zM196 484v-5h8v5
h-8zM620 494v-5h9v5h-9zM803 886h-8v-5h8v5zM629 604v4h-9v-4h9zM803 434h-8v-5h8v5zM196 886v-5h8v5h-8zM620 938v-4h9v4h-9zM620 1006v-4h9v4h-9zM337 1128v-2h17v2h-17zM185 994h-16v-2h16v2zM785 886v-5h9v5h-9zM761 1136v-3h17v3h-17zM204 594v5h-8v-5h8zM785 434v-5h9
v5h-9zM196 938v-4h8v4h-8zM720 552h-34v-1h34v1zM56 1035v9h-5v-9h5zM435 565v-8h5v8h-5zM359 486v-3h10v3h-10zM359 928v-4h10v4h-10zM333 238h-10v-4h10v4zM359 475v-4h10v4h-10zM333 688h-10v-3h10v3zM71 717h-4v-11h4v11zM271 994h-15v-2h15v2zM678 556h-16v-3h16v3z
M845 712v-6h6v6h-6zM118 196v6h-6v-6h6zM306 426h-6v-6h6v6zM386 981v-1h30v1h-30zM700 1131v-15h3v15h-3zM197 394h-5v-7h5v7zM197 844h-5v-7h5v7zM887 434h-7v-5h7v5zM887 938h-7v-4h7v4zM659 247h-15v-2h15v2zM245 998v-2h10v2h-10zM60 394h-5v-7h5v7zM544 418h-10v-3h10
v3zM435 1016v-7h5v7h-5zM544 896h-10v-3h10v3zM887 886h-7v-5h7v5zM659 696h-15v-3h15v3zM296 994h-14v-2h14v2zM380 859h-9v-3h9v3zM604 1136h-15v-3h15v3zM544 868h-10v-4h10v4zM201 238v-4h9v4h-9zM483 590h-5v-7h5v7zM333 1024v10h-3v-10h3zM380 434h-9v-4h9v4zM887 494
h-7v-5h7v5zM333 571v10h-3v-10h3zM622 403h-5v-6h5v6zM416 1040v4h-10v-4h10zM60 844h-5v-7h5v7zM416 589v4h-10v-4h10zM544 836h-10v-4h10v4zM380 409h-9v-4h9v4zM803 696h-13v-3h13v3zM284 1120h-2v-13h2v13zM396 998h-14v-1h14v1zM288 1120v-13h2v13h-2zM571 1136v-3h14
v3h-14zM619 1133v3h-13v-3h13zM620 483v-4h9v4h-9zM71 256h-4v-9h4v9zM803 868h-8v-4h8v4zM620 947v-4h9v4h-9zM71 704h-4v-7h4v7zM196 475v-4h8v4h-8zM803 896h-8v-3h8v3zM197 238h-8v-4h8v4zM758 582v8h-6v-8h6zM196 928v-4h8v4h-8zM785 896v-3h9v3h-9zM196 434v-4h8v4h-8
zM620 518v-4h9v4h-9zM620 896v-3h9v3h-9zM196 998v-2h8v2h-8zM803 418h-8v-3h8v3zM361 434v-4h8v4h-8zM643 518v-4h8v4h-8zM306 875h-6v-5h6v5zM862 1026v-6h5v6h-5zM728 886h-6v-5h6v5zM239 994h-12v-2h12v2zM862 574v-6h5v6h-5zM782 949v-2h12v2h-12zM728 434h-6v-5h6v5z
M484 387h-3v-5h3v5zM622 852h-5v-6h5v6zM56 1045v6h-5v-6h5zM722 696v-3h12v3h-12zM700 1110v-12h3v12h-3zM25 1034h-6v-5h6v5zM722 247v-2h12v2h-12zM485 696h-9v-3h9v3zM396 722v-1h21v1h-21zM475 696h-11v-3h11v3zM189 688v-3h7v3h-7zM74 688h-7v-3h7v3zM758 1034v7h-6
v-7h6zM887 418h-7v-3h7v3zM758 696h-13v-3h13v3zM822 283v-1h22v1h-22zM758 247h-13v-2h13v2zM887 896h-7v-3h7v3zM887 947h-7v-4h7v4zM844 1051v2h-11v-2h11zM887 483h-7v-4h7v4zM822 732v-2h22v2h-22zM844 599v2h-11v-2h11zM74 238h-7v-4h7v4zM219 998v-2h7v2h-7zM887 868
h-7v-4h7v4zM60 825h-5v-5h5v5zM284 1136h-2v-10h2v10zM622 247h-10v-2h10v2zM483 599h-5v-5h5v5zM288 1136v-10h2v10h-2zM773 651v3h-9v-3h9zM56 1052v5h-5v-5h5zM56 601v5h-5v-5h5zM622 387h-5v-5h5v5zM498 994h-16v2h16v-2zM56 594v5h-5v-5h5zM197 825h-5v-5h5v5zM544 442
h-10v-2h10v2zM245 994v-2h10v2h-10zM495 712h-4v-6h4v6zM758 611v6h-6v-6h6zM418 688v-3h6v3h-6zM201 426v-6h3v6h-3zM201 409v-4h6v4h-6zM484 836h-3v-4h3v4zM495 264h-4v-6h4v6zM620 556v-3h9v3h-9zM620 442v-2h9v2h-9zM643 556v-3h8v3h-8zM495 295v1h-14v-1h14zM620 969
v-2h9v2h-9zM196 507v-3h8v3h-8zM803 442h-8v-2h8v2zM196 960v-3h8v3h-8zM348 642v2h-9v-2h9zM196 994v-2h8v2h-8zM785 442v-2h9v2h-9zM201 859v-3h6v2h-3v1h-3zM306 985h-1v-16h1v16zM728 540h-1v-15h1v15zM678 552h-16v-1h16v1zM435 998v-2h5v2h-5zM306 531h-1v-15h1v15z
M626 247v-2h8v2h-8zM761 790v-5h4v5h-4zM219 994v-2h7v2h-7zM197 409h-5v-4h5v4zM887 442h-7v-2h7v2zM483 574h-7v-3h7v3zM622 868h-5v-4h5v4zM333 1052v5h-3v-5h3zM197 859h-5v-3h5v3zM201 875v-5h3v5h-3zM612 696v-3h7v3h-7zM758 1063v4h-6v-4h6zM333 601v5h-3v-5h3z
M60 378h-5v-4h5v4zM197 378h-5v-4h5v4zM622 836h-5v-4h5v4zM622 418h-5v-3h5v3zM822 1006h-13v-1h13v1zM396 546h-14v-1h14v1zM728 992h-1v-13h1v13zM822 556h-13v-1h13v1zM845 696v-3h6v3h-6zM497 247h-6v-2h6v2zM497 696h-6v-3h6v3zM262 268v2h-6v-2h6zM210 688h-3v-3h3v3
zM495 282v4h-4v-4h4zM337 779v-4h4v4h-4zM626 868v-4h4v4h-4zM495 730v4h-4v-4h4zM207 1136v-10h1v10h-1zM626 886v-5h3v5h-3zM483 604v2h-5v-2h5zM862 556v-3h5v3h-5zM626 418v-3h4v2h-1v1h-3zM626 434v-5h3v5h-3zM643 552v-1h8v1h-8zM620 552v-1h9v1h-9zM634 696h-4v-3h4
v3zM483 962h-1v7h1v-7zM262 716v1h-6v-1h6zM728 574h-1v-6h1v6zM306 546h-1v-6h1v6zM728 1026h-1v-6h1v6zM197 426h-1v-6h1v6zM684 726v1h-5v-1h5zM728 1006h-1v-4h1v4zM700 1136v-3h3v3h-3zM197 875h-1v-5h1v5zM622 886h-2v-5h2v5zM684 279v1h-5v-1h5zM622 434h-2v-5h2v5z
M306 886h-1v-5h1v5zM361 998v-2h1v2h-1zM728 518h-1v-4h1v4zM306 998h-1v-2h1v2zM306 434h-1v-4h1v4zM728 896h-1v-3h1v3zM306 960h-1v-3h1v3zM306 994h-1v-2h1v2zM306 507h-1v-3h1v3zM785 556v-3h2v3h-2zM728 556h-1v-3h1v3zM728 442h-1v-2h1v2zM728 969h-1v-2h1v2z
M728 552h-1v-1h1v1z" />
    <glyph glyph-name="uni262F" unicode="&#x262f;" horiz-adv-x="928" 
d="M-39 172v791v10v183h1016v-984h-1016zM160 685v-8h-6v8h-11v2h11v17h-3v12h3v5h-13v2h-24v12h-5v47h-6v-85h28v-19h-18v-1h-8v1h-2v-1h-9v1h-6v-1h-4v1h-6v-1h-1v1h-1v-1h-1v1h-3v-1h-16v-20h19v-13h4v13h187v15h-37v1h6v8h-41v4h-37zM901 1017v-37h16v19h-3v9h3v13h-3v9
h3v16h-3v2h3v36h-9v3h9v29h-80v-16h3v-18h-3v-7h13v35h2v-35h1v-2h-1v-33h12v53h4v-53h6v48h11v-48h2v62h14v-62h4v-23h-4zM551 220v-6h41v25h7v-25h13v11h1v-11h3v42h-11v2h11v17h-5v13h5v4h-14v3h-23v11h-4v44h-8v-81h28v-20h-28v-25h-5v-4h-11zM323 403v11h20v14h-4v29
h-29v39h-5v-29h-10v29h-7v-32h5v-36h-5v-26h5v-3h-5v-6h7v1h10v-1h5v4h20v-4h13v10h-20zM775 403v11h19v14h-3v29h-31v39h-3v-29h-10v29h-7v-32h6v-36h-6v-26h6v-3h-6v-6h7v1h10v-1h3v4h22v-4h12v10h-19zM765 831v10h20v15h-3v29h-30v40h-5v-30h-9v30h-8v-32h6v-37h-6v-25h6
v-4h-6v-3h22v2h20v-2h13v7h-20zM257 551h5v8h-4v2h4v9h-4v43h83v-24h6v17h8v6h-8v11h7v27h-9v-20h-2v20h-7v-16h-3v16h-3v-27h11v-3h-224v-7h127v-54h3v-8h5v8h5v-8zM314 831v10h19v15h-3v29h-30v40h-4v-30h-10v30h-6v-32h4v-37h-4v-25h4v-4h-4v-3h20v2h22v-2h11v7h-19z
M453 1071h14v45h-81v-16h1v-18h-1v-7h12v35h4v-35h1v-2h-1v-2h12v22h2v-22h6v17h12v-17h2v31h13v8h4v-39zM622 256v-42h106v6h-7v1h-78v6h-15v11h62v3h2v3h14v3h-3v5h-44v4h-37zM39 357v4h5v39h-13v-28h4v-5h-4v-22h2v-6h-2v-39h1v-7h-1v-13h10v-6h-10v-12h5v-4h-5v-14h2v-3
h11v65h-11v17h11v34h-5zM139 249v-23h8v-12h8v21h9v21h-12v2h12v17h-4v13h4v4h-13v3h-12v-26h4v-20h-4zM126 980h2v-39h9v15h6v24h5v-20h22v24h-22v-3h-5v9h-6v13h-9v-22h-2v-1zM600 980v-20h20v24h-20v-3h-5v9h-6v13h-9v-62h9v15h6v24h5zM171 256v-25h5v7h62v3h2v3h16v3h-4
v5h-44v4h-37zM586 551h3v-39h9v15h7v24h5v-20h20v24h-20v-3h-5v9h-7v13h-9v-22h-3v-1zM12 671h4v90h-15v-90h5v10h6v-10zM580 678v-7h27v14h-12v2h12v17h-5v12h5v5h-14v2h-13v-26h6v-19h-6zM158 551v-20h20v24h-20v-3h-6v9h-6v13h-7v-62h7v15h6v24h6zM192 486v-47h4v-30h5
v30h6v-30h3v77h-18zM797 911v-18h12v-25h21v43h-33zM568 723v12h-4v72h-3v3h-3v-113h21v26h-11zM636 917v-49h2v-31h5v31h6v-31h4v80h-17zM772 1100h13v16h-97v-6h3v-10h2v9h6v-9h5v6h11v-6h3v15h12v-15h22v10h20v-10zM128 295v11h-5v51h-7v-88h21v26h-9zM928 730v11h-8v-20
h5v7h6v-7h3v-4h-3v-166h5v190h-7v-11h-1zM589 596h56v-35h4v38h8v-38h4v10h2v35h-2v4h-92v-6h76v-6h-56v-2zM503 1071v45h-30v-45h12v33h10v-33h8zM485 669h-3v-12h-5v12h-4v-12h-6v12h-3v-12h-42v12h-6v-1h5v-11h-9v-7h-1v-8h11v7h2v-7h9v7h31v-7h13v7h5v-7h3v7h1v8h-1v12z
M201 703h-9v1h-32v-17h37v5h35v2h9v9h-23v-3h-17v3zM653 703h-9v1h-32v-17h37v5h34v2h10v9h-24v-3h-16v3zM185 917v-49h3v-31h3v31h5v-31h5v80h-16zM796 221v-7h102v39h-4v-29h-9v29h-9v-15h6v-17h-20v-6h-4v6h-62zM355 482v-18h13v-25h18v43h-31zM645 486v-47h3v-30h5v30h4
v-30h4v77h-16zM24 752h9v30h-11v-7h3v-6h5v-8h-8v-90h3v17h6v-17h2v64h-9v17zM322 1100h11v16h-89v-7h3v-9h5v6h12v-6h4v15h12v-15h20v10h22v-10zM661 274h-6v1h-33v-17h37v6h33v3h11v7h-25v-3h-17v3zM210 274h-8v1h-31v-17h37v6h32v3h12v7h-25v-3h-17v3zM592 807v-62h15v62
h-15zM820 464v-25h2v8h6v-8h10v43h-31v-18h13zM50 1071v45h-28v-45h11v33h11v-33h6zM612 685v-14h4v7h6v-7h61v2h8v8h-42v4h-37zM911 588v-37h14v143h-5v-6h4v-5h-4v-118h-6v23h-3zM148 893h6v24h-13v-36h5v-5h-5v-36h13v36h-6v17zM498 623h17v51h-17v-51zM355 650v-27h31
v27h-31zM838 650h-31v-27h31v27zM755 512h5v38h10v31h-22v-20h18v-2h-18v-9h7v-38zM141 807v-62h13v62h-13zM746 941h6v38h7v31h-19v-20h17v-1h-17v-10h6v-38zM489 267h-7v-26h13v65h-11v7h-2v-21h10v-4h-10v-18h7v-3zM16 1116h-20v-45h3v39h2v-39h15v45zM495 752h8v97h-8
v-25h2v-5h-2v-10h2v-18h-2v-39zM460 221v-7h35v26h-13v-19h-5v19h-13v-19h-4zM785 650h-3v-27h10v-34h5v17h9v6h-9v11h7v27h-8v-20h-2v20h-6v-16h-3v16zM601 893h6v24h-15v-34h7v-8h-7v-16h15v17h-6v17zM668 581v1h13v19h-6v5h-9v-35h2v-10h23v9h-10v11h-13zM482 849v10h3
v52h-12v-18h3v-8h3v-9h-6v-35h12v8h-3zM159 464h5v22h-16v-51h16v11h-5v18zM708 485h-5v1h-4v-1h-8v1h-13v-22h13v8h8v-8h4v8h5v-8h6v25h-6v-4zM550 1100v16h-35v-34h6v28h3v-28h4v32h3v-32h1v18h7v15h2v-15h9zM777 931v11h8v11h-13v-60h13v38h-8zM335 502v11h8v11h-13v-60
h13v38h-8zM98 1100v16h-33v-34h4v28h3v-28h6v32h1v-32h1v18h8v15h3v-15h7zM797 1073v-21h33v21h-33zM797 721v-22h33v22h-33zM336 1073v-14h-3v14h-11v-21h9v-34h6v17h8v6h-8v11h6v21h-7zM257 485h-5v1h-5v-1h-9v1h-11v-1h-1v-13h1v-8h11v8h9v-8h5v8h5v-8h5v25h-5v-4z
M659 1010v1h13v21h-7v3h-8v-36h2v-9h21v8h-8v12h-13zM612 1107v-7h10v16h-42v-16h27v7h5zM208 1010v1h12v21h-6v3h-8v-36h2v-9h20v8h-8v12h-12zM218 581v1h11v19h-5v5h-9v-35h3v-10h20v9h-9v11h-11zM202 573h5v-12h3v10h3v35h-21v-45h5v38h10v-1h-5v-25zM788 502v11h6v11
h-12v-60h12v38h-6zM504 240v-26h10v6h-2v24h2v5h-8v20h8v37h-10v-65h5v-1h-5zM247 913h-6v4h-3v-4h-10v4h-10v-24h10v8h10v-8h3v8h6v-8h5v24h-5v-4zM699 913h-6v4h-2v-4h-11v4h-11v-4h-1v-12h1v-8h11v8h11v-8h2v8h6v-8h5v24h-5v-4zM347 1073v-21h30v21h-30zM408 221h-29v-7
h68v26h-4v-16h-10v16h-9v-2h5v-17h-18v-6h-3v6zM549 525h-10v-67h10v67zM788 1073v-14h-3v14h-13v-21h11v-34h5v17h8v6h-8v11h6v21h-6zM326 931v11h7v11h-11v-60h11v38h-7zM479 694h-6v-23h4v17h5v-17h3v64h-10v6h-2v-20h9v-4h-9v-18h6v-5zM148 317h16v40h-16v-40zM514 524
h-10v-66h10v66zM296 559v-9h2v1h20v30h-22v-20h18v-2h-18zM797 771v-19h33v19h-33zM6 240h-10v-26h28v26h-12v-19h-6v19zM871 650h-9v-39h12v72h-6v-15h3v-18zM355 570v-19h31v19h-31zM807 570v-19h31v19h-31zM60 418v2h1v12h-8v-71h8v57h-1zM288 989v-9h20v30h-20v-20h17
v-1h-17zM508 421v11h-4v-39h3v-3h-3v-9h3v-18h-3v-4h10v62h-6zM503 953h-8v-70h8v70zM539 953h-8v-70h8v70zM797 998v-18h33v18h-33zM616 446h-6v9h-9v-44h15v35zM270 221h-74v-7h80v6h-6v1zM53 240v-3h1v-22h-1v-1h8v6h-1v24h1v5h-7v20h7v37h-8v-65h4v-1h-4zM1 816v-13h15
v46h-15v-22h9v-11h-6v-2h-2v2h-1zM647 1100v6h24v10h-42v-16h18zM466 775h1v16h-14v-39h14v15h-1v8zM22 849v-46h11v46h-11zM797 1100h33v16h-33v-16zM116 224h-4v-10h5v12h20v23h-21v-25zM347 998v-18h30v18h-30zM6 617h-10v-61h10v36h-7v7h7v18zM464 323h13v16h-1v6h1v18
h-13v-40zM655 1035h-19v-45h5v38h8v-38h4v9h2v36zM901 791v-39h13v39h-13zM16 1021h-15v-36h15v36zM467 1021h-13v-4h-1v-32h14v36zM347 1100h30v16h-30v-16zM936 911h-7v-70h7v70zM616 653h-4v-10h-5v10h-18v-21h-3v-4h6v14h9v-14h15v25zM550 810h-9v-58h9v58zM539 810h-8
v-58h8v58zM601 317h15v33h-15v-33zM561 508h-10v-50h10v50zM862 292v-22h12v43h-12v-12h3v-9h-3zM402 721v-22h12v42h-12v-9h2v-11h-2zM852 721v-22h12v42h-12v-9h3v-11h-3zM25 592h-13v-36h13v36zM44 592h-13v-36h13v36zM495 592h-13v-36h13v36zM203 1035h-18v-45h3v38h8
v-38h5v9h2v36zM928 893v18h-27v-18h27zM164 653h-4v-10h-6v10h-15v-25h2v14h7v-14h16v25zM477 592h-12v-4h-1v-32h13v36zM797 856v-15h33v15h-33zM403 595h-9v-44h14v19h-5v25zM473 752h12v39h-12v-16h3v-8h-3v-15zM330 378v-27h13v39h-13v-5h7v-7h-7zM402 452v12h6v18h-14
v-43h8v7h6v6h-6zM911 464h25v18h-25v-18zM550 937h-9v-54h9v54zM901 856v-15h27v35h-4v-20h-23zM492 432v13h3v10h-6v-9h-7v-32h13v18h-3zM355 428v-14h31v14h-31zM1 953v-31h15v31h-15zM772 807v-26h13v38h-13v-5h9v-7h-9zM97 525h-9v-53h9v53zM262 1012h17v27h-17v-27z
M723 583h17v27h-17v-27zM411 292v-22h11v43h-11v-12h4v-9h-4zM33 1021h-11v-36h11v36zM485 1021h-12v-36h12v36zM521 826h-6v-60h3v-3h-3v-11h6v58h-1v8h1v8zM843 881v12h7v18h-13v-43h6v8h7v5h-7zM807 524v25h-13v-25h2v-11h8v11h3zM850 650h-4v-27h4v-12h8v39h-6v-5h-2v5z
M853 595h-7v-44h12v19h-5v25zM273 583h15v27h-15v-27zM714 1012h15v27h-15v-27zM322 807v-26h11v38h-11v-5h7v-7h-7zM852 452v12h6v18h-12v-43h6v7h6v6h-6zM840 1052v-12h10v33h-13v-21h3zM88 1021h-9v-41h9v41zM549 592h-10v-41h10v41zM108 592h-10v-41h10v41zM561 592h-10
v-41h10v41zM797 931v-12h33v12h-33zM807 692v-17h23v17h-23zM79 837h9v39h-9v-39zM610 464h6v22h-15v-28h9v6zM355 490h31v12h-31v-12zM807 490h31v12h-31v-12zM33 953h-11v-31h11v31zM44 849v-62h6v62h-6zM391 881v12h7v18h-12v-43h5v8h7v5h-7zM6 876v9h10v9h-15v-31h15v13
h-10zM836 533h101v4h-101v-4zM495 735v-60h8v3h-7v19h7v38h-8zM678 623h13v27h-13v-27zM336 657h75v5h-75v-5zM377 911h-9v-43h9v43zM227 292v-15h25v15h-25zM678 292v-15h25v15h-25zM797 953v24h-12v-24h3v-11h6v11h3zM876 611h9v42h-9v-42zM911 673v-62h3v72h-13v-10h10z
M797 953v-11h33v11h-33zM797 791v-10h33v10h-33zM429 288v4h4v21h-9v-43h9v18h-4zM881 288v4h4v21h-9v-43h9v18h-4zM534 639h13v27h-13v-27zM678 323h13v26h-13v-26zM108 508h-10v-36h10v36zM261 935h12v28h-12v-28zM712 935h12v28h-12v-28zM723 506h12v28h-12v-28zM668 439
h7v47h-7v-47zM815 581h17v20h-17v-20zM97 592h-9v-41h9v41zM539 1021h-8v-41h8v41zM558 1100h21v16h-21v-16zM550 1021h-9v-41h9v41zM567 551h8v41h-8v-41zM482 339v-16h13v27h-13v-5h3v-6h-3zM87 699v24h1v12h-9v-38h9v2h-1zM926 1060v6h2v18h-10v-36h10v12h-2zM807 524
v-11h31v11h-31zM355 292v-22h16v22h-16zM807 292v-22h15v22h-15zM355 524v-11h31v11h-31zM98 323h10v34h-10v-34zM547 270v25h2v11h-10v-37h10v1h-2zM521 937h-6v-54h6v54zM22 876v-13h11v31h-11v-9h5v-9h-5zM345 390v-39h9v39h-9zM31 416v-10h13v26h-13v-15h11v-1h-11z
M524 953v-4h1v-12h-1v-54h4v70h-4zM148 411h16v21h-16v-21zM901 931v-12h27v12h-27zM669 721v-13h24v13h-24zM218 721v-13h23v13h-23zM12 388v-16h13v28h-13v-1h6v-11h-6zM782 378v-19h12v31h-12v-5h8v-7h-8zM88 953h-9v-33h9v33zM514 583h-10v-32h10v32zM797 741v-9h33v9
h-33zM271 506h11v28h-11v-28zM797 819v-10h33v10h-33zM580 1073v-16h1v14h11v-14h15v16h-27zM534 524h-1v-4h1v-12h-1v-50h5v67h-4v-1zM428 539h7v-4h-21v-3h21v-8h7v8h3v3h-3v4h9v2h-9v8h-7v-8h-7v-2zM911 502v-12h25v12h-25zM355 342v-19h16v19h-16zM807 342v-19h15v19
h-15zM126 1057h4v14h11v-14h13v16h-26v-12h-2v-4zM227 623h11v27h-11v-27zM398 650h-4v-27h5v-12h9v6h-6v25h6v8h-6v-5h-4v5zM659 868h6v49h-6v-49zM208 868h6v49h-6v-49zM485 464v-6h10v24h-13v-18h3zM453 741v-20h14v20h-14zM911 363v-40h7v40h-7zM98 1021h-7v-41h7v41z
M538 699v24h1v12h-8v-38h8v2h-1zM116 551h7v41h-7v-41zM88 323h9v34h-9v-34zM53 323h8v34h-8v-34zM218 439h6v47h-6v-47zM79 752h9v30h-9v-30zM394 292v-22h14v22h-14zM84 524h-3v-4h3v-12h-3v-36h6v53h-3v-1zM772 721v-22h13v22h-13zM837 721v-22h13v22h-13zM668 495h7v39
h-7v-39zM678 378v-22h13v22h-13zM936 791h-7v-39h7v39zM928 791h-8v-39h8v39zM227 323h11v26h-11v-26zM218 752h10v26h-10v-26zM669 752h11v26h-11v-26zM464 313v-21h13v21h-13zM330 292v-22h13v22h-13zM96 270v25h1v11h-9v-37h9v1h-1zM528 810h-4v-58h4v58zM192 1116h-16
v-16h16v16zM730 1073v-21h8v19h9v-19h5v21h-22zM917 232v3h1v18h-7v-39h7v18h-1zM678 428v-19h9v-7h4v26h-13zM336 819v-38h7v38h-7zM911 428v-14h7v10h12v-10h6v32h-2v-18h-23zM96 840h2v36h-7v-39h5v3zM601 378v-19h15v19h-15zM61 583h-8v-32h8v32zM503 1012h-8v-32h8v32z
M12 367v-20h13v20h-13zM12 320v-20h13v20h-13zM106 1116v-16h10v10h18v6h-28zM901 741v-20h13v20h-13zM44 735v-60h6v3h-5v19h5v38h-6zM504 323h10v27h-10v-27zM551 323h10v27h-10v-27zM539 323h10v27h-10v-27zM148 378v-17h16v17h-16zM796 390v-31h8v31h-8zM322 721v-22h11
v22h-11zM386 721v-22h12v22h-12zM782 292v-22h12v22h-12zM846 292v-22h12v22h-12zM453 911v-18h14v18h-14zM453 717v-18h14v18h-14zM347 721v-22h12v22h-12zM330 570v-19h13v19h-13zM330 323h13v19h-13v-19zM394 342v-19h14v19h-14zM772 752h13v19h-13v-19zM837 771v-19h13
v19h-13zM170 569h8v30h-8v-30zM16 669h-4v-27h13v27h-3v-19h-6v19zM-2 274v6h8v13h-10v-31h10v12h-8zM558 980h6v41h-6v-41zM106 980h6v41h-6v-41zM936 363h-6v-40h6v40zM807 263v-16h15v16h-15zM420 717v4h2v20h-6v-42h6v18h-2zM355 263v-16h16v16h-16zM531 508h-5v-50h5
v50zM567 486v-28h8v28h-8zM326 538h17v-5h12v5h6v5h-6v1h-12v-1h-17v-5zM870 717v4h4v20h-6v-42h6v18h-4zM41 215v22h3v3h-12v-26h12v1h-3zM355 403v-10h16v7h8v-7h7v10h-31zM208 924h6v39h-6v-39zM659 924h6v39h-6v-39zM464 482v-18h13v18h-13zM464 288v-18h13v18h-13z
M772 998v-18h13v18h-13zM837 998v-18h13v18h-13zM218 495h6v39h-6v-39zM61 524h-8v-16h1v-4h-1v-9h8v29zM72 837h6v39h-6v-39zM901 717v-18h13v18h-13zM280 1073v-21h6v19h10v-19h4v21h-20zM797 824h33v7h-33v-7zM227 378v-22h11v22h-11zM669 807v-22h11v22h-11zM218 807
v-22h10v22h-10zM669 1073v-21h11v21h-11zM218 1073v-21h10v21h-10zM797 1082v-7h33v7h-33zM782 570v-19h12v19h-12zM862 570v-19h12v19h-12zM322 752h11v19h-11v-19zM386 752h12v19h-12v-19zM846 342v-19h12v19h-12zM782 323h12v19h-12v-19zM521 735h-6v-38h6v38zM78 735h-6
v-38h6v38zM402 752h12v19h-12v-19zM852 771v-19h12v19h-12zM862 342v-19h12v19h-12zM788 819v-38h6v38h-6zM88 810h-9v-23h9v23zM347 771v-19h12v19h-12zM672 980h8v9h-21v-12h13v3zM807 428v-14h15v14h-15zM227 428v-19h8v-7h3v26h-11zM196 732h5v46h-5v-46zM84 583h-3v-32
h6v41h-3v-9zM74 1012h-2v-32h6v41h-4v-9zM300 649h-12v-26h7v19h5v7zM752 649h-12v-26h7v19h5v7zM388 1052v-12h10v6h-6v25h6v2h-12v-21h2zM681 551h10v8h-23v-10h13v2zM87 306h-6v-37h6v37zM53 435h8v26h-8v-26zM669 856v-19h9v-6h2v25h-11zM218 856v-19h8v-6h2v25h-10z
M-4 671h3v90h-3v-90zM-1 669h-3v-27h10v27h-5v-19h-2v19zM561 381h-10v-22h10v22zM549 381h-10v-22h10v22zM347 911v-18h12v18h-12zM91 752h7v30h-7v-30zM322 998v-18h11v18h-11zM386 998v-18h12v18h-12zM347 1082v-7h30v7h-30zM852 998v-18h12v18h-12zM852 893h12v18h-12
v-18zM402 893h12v18h-12v-18zM862 464h12v18h-12v-18zM106 840h6v36h-6v-36zM220 980h8v9h-20v-12h12v3zM930 953h-1v-11h7v33h-6v-22zM44 894v-31h6v37h-6v-2h4v-4h-4zM81 323h6v34h-6v-34zM838 292h-10v-22h10v22zM1 801v-14h15v14h-15zM453 856v-15h14v15h-14zM411 342
v-19h11v19h-11zM44 524h-13v-16h13v16zM12 524v-16h13v16h-13zM586 317h6v33h-6v-33zM558 917v-34h6v34h-6zM229 551h9v8h-20v-10h11v2zM580 1082v-7h27v7h-27zM-4 320v-20h10v20h-10zM160 721v-5h41v5h-41zM612 721v-5h41v5h-41zM-4 367v-20h10v20h-10zM108 381h-10v-20h10
v20zM50 1012h-6v-32h6v32zM411 464h11v18h-11v-18zM521 1012h-6v-32h6v32zM1 769h15v13h-15v-13zM12 258v-14h13v14h-13zM464 428v-14h13v14h-13zM411 570v-19h7v5h4v14h-11zM12 417h13v15h-13v-15zM128 1082v-7h26v7h-26zM730 721v-27h8v27h-8zM394 428v-14h14v14h-14z
M837 856v-15h13v15h-13zM6 1046h-5v-18h15v11h-10v7zM196 924h5v39h-5v-39zM192 495h5v39h-5v-39zM636 924h5v39h-5v-39zM288 323h7v26h-7v-26zM730 752h8v26h-8v-26zM69 826h-4v-39h4v39zM355 313v-12h16v12h-16zM355 351h16v12h-16v-12zM807 313v-12h15v12h-15zM50 953h-6
v-31h6v31zM402 998v-18h6v5h6v13h-12zM862 238h12v15h-12v-15zM743 348v1h-3v-26h7v25h-4zM525 1012h-1v-32h4v41h-3v-9zM534 583h-1v-32h5v41h-4v-9zM531 397h-5v-38h5v38zM838 342h-10v-19h10v19zM79 900v-19h9v19h-9zM69 735h-4v-38h4v38zM528 735h-4v-38h4v38zM459 1046
h-6v-6h1v-12h13v11h-8v7zM345 221v-7h26v7h-26zM377 721h-9v-22h9v22zM288 292v-25h7v25h-7zM740 292v-25h7v25h-7zM345 292v-22h9v22h-9zM796 292v-22h8v22h-8zM72 752h6v30h-6v-30zM44 752h6v30h-6v-30zM126 745h4v37h-4v-37zM80 306h-5v-37h5v37zM538 306h-5v-37h5v37z
M531 306h-5v-37h5v37zM550 735h-9v-12h6v-24h-6v-2h9v38zM561 306h-10v-11h7v-25h-7v-1h10v37zM12 293v-13h13v13h-13zM12 339v-13h13v13h-13zM613 574h10v18h-10v-18zM586 486v-28h6v28h-6zM347 856v-15h12v15h-12zM126 840h4v36h-4v-36zM98 810h-7v-23h7v23zM844 1023h-7
v-24h7v24zM393 1023h-7v-24h7v24zM207 301h3v48h-3v-48zM657 301h4v48h-4v-48zM386 856v-15h12v15h-12zM846 428v-14h12v14h-12zM862 428v-14h12v14h-12zM852 856v-15h12v15h-12zM453 931v-12h14v12h-14zM80 508h-5v-36h5v36zM22 801v-14h11v14h-11zM918 1104v-17h10v17h-10
zM97 381h-9v-20h9v20zM567 381v-22h8v19h-6v3h-2zM901 953v-11h16v11h-16zM31 446v-11h13v14h-7v-3h-6zM649 732h4v46h-4v-46zM411 238h11v15h-11v-15zM396 253v6h12v4h-14v-16h10v-9h4v15h-12zM574 614h69v3h-69v-3zM72 953v-4h2v-12h-2v-17h6v33h-6zM934 253h-4v-18h6v32
h-6v-8h4v-6zM80 397h-5v-36h5v20h-1v7h1v9zM377 771h-9v-19h9v19zM6 388h-10v-16h10v16zM710 650h-2v-27h6v26h-4v1zM876 323h9v19h-9v-19zM796 323h8v19h-8v-19zM424 342v-19h9v19h-9zM345 323h9v19h-9v-19zM638 778v-33h5v33h-5zM98 735h-7v-12h5v-24h-5v-2h7v38zM796 570
v-19h8v19h-8zM345 570v-19h9v19h-9zM876 570v-19h9v19h-9zM514 539h44v4h-44v-4zM12 274v-12h13v12h-13zM280 721v-27h6v27h-6zM464 502v-12h13v12h-13zM464 241h13v12h-13v-12zM394 490h14v12h-14v-12zM837 919h13v12h-13v-12zM280 752h6v26h-6v-26zM482 502v-12h13v12h-13
zM330 313v-12h13v12h-13zM394 351h14v12h-14v-12zM394 313v-12h14v12h-14zM708 323h6v26h-6v-26zM708 428v-26h6v26h-6zM678 313v-12h13v12h-13zM75 323h5v34h-5v-20h3v-4h-3v-10zM16 617h-4v-18h13v9h-9v9zM386 292h-7v-22h7v22zM911 524v-11h14v11h-14zM65 837h4v39h-4
v-13h2v-14h-2v-12zM16 446v3h-4v-14h13v11h-9zM288 378v-22h7v22h-7zM196 349v-32h5v32h-5zM730 807v-22h8v22h-8zM648 349v-32h5v32h-5zM69 1012h-4v-32h4v32zM80 583h-5v-32h5v32zM531 583h-5v-32h5v32zM730 1082v-7h22v7h-22zM336 721v-22h7v22h-7zM453 953v-11h14v11
h-14zM876 464h9v18h-9v-18zM796 464h8v18h-8v-18zM424 464h9v18h-9v-18zM345 464h9v18h-9v-18zM616 507h18v8h-18v-8zM6 524h-10v-16h10v16zM576 807v-62h3v62h-3zM838 263h-10v-16h10v16zM807 403v-10h15v10h-15zM918 1046v-16h10v16h-10zM98 461v-15h10v15h-10zM894 323h4
v40h-4v-40zM443 323h4v40h-4v-40zM280 1082v-7h20v7h-20zM134 317h3v40h-3v-40zM740 378v-22h3v3h4v19h-7zM108 306h-10v-11h8v-25h-8v-1h10v37zM782 313v-12h12v12h-12zM846 313v-12h12v12h-12zM846 490h12v12h-12v-12zM347 919h12v12h-12v-12zM386 919h12v12h-12v-12z
M473 931v-12h12v12h-12zM78 810h-6v-23h6v23zM402 919h12v12h-12v-12zM852 919h12v12h-12v-12zM862 490h12v12h-12v-12zM649 924h4v39h-4v-39zM645 495h4v39h-4v-39zM657 495h4v39h-4v-39zM622 292v-4h39v4h-39zM837 781h13v10h-13v-10zM464 524v-11h13v11h-13zM394 524v-11
h14v11h-14zM837 953v-11h13v11h-13zM495 524h-13v-11h13v11zM708 274v-7h6v25h-6v-15h2v-3h-2zM467 617h-3v-6h1v-12h12v9h-10v9zM207 495h3v39h-3v-39zM171 292v-4h39v4h-39zM330 252v-5h13v16h-7v-11h-6zM-4 241h2v3h8v14h-10v-17zM377 692h-9v-17h9v17zM336 752h7v19h-7
v-19zM-4 449v-14h10v14h-10zM-4 417h10v15h-10v-15zM91 900v-19h7v19h-7zM838 428h-10v-14h10v14zM386 342h-7v-19h7v19zM249 514h9v14h-9v-14zM65 752h4v30h-4v-16h2v-3h-2v-11zM922 985v8h6v6h-10v-19h10v5h-6zM533 323h5v27h-5v-27zM196 623h5v27h-5v-27zM247 623h5v27
h-5v-27zM648 623h5v27h-5v-27zM796 263v-16h8v16h-8zM592 840h15v9h-15v-9zM345 263v-16h9v16h-9zM148 388h16v9h-16v-9zM592 818h15v8h-15v-8zM88 461v-15h9v15h-9zM106 810v-23h6v20h-3v3h-3zM495 875v-16h8v16h-8zM531 875v-16h8v16h-8zM541 875v-16h9v16h-9zM807 390v-9
h15v9h-15zM355 390v-9h16v9h-16zM852 953v-11h12v11h-12zM288 220v-6h22v6h-22zM862 524v-11h12v11h-12zM632 439h6v21h-6v-21zM182 439h6v21h-6v-21zM708 378v-22h6v22h-6zM259 650h-2v-27h5v26h-3v1zM280 807v-22h6v22h-6zM411 490h11v12h-11v-12zM788 721v-22h6v22h-6z
M386 781h12v10h-12v-10zM402 781h12v10h-12v-10zM411 351h11v12h-11v-12zM852 781h12v10h-12v-10zM336 998v-18h7v18h-7zM336 893h7v18h-7v-18zM386 953v-11h12v11h-12zM846 524v-11h12v11h-12zM227 313v-12h11v12h-11zM485 953h-12v-11h12v11zM33 1039h-11v-11h11v11z
M402 953v-11h12v11h-12zM485 1039h-12v-11h12v11zM911 288v-18h7v18h-7zM116 381v-20h7v17h-5v3h-2zM347 781h12v10h-12v-10zM347 953v-11h12v11h-12zM936 1084h-7v-18h7v18zM936 1104h-7v-17h7v17zM50 635h6v21h-6v-21zM257 428v-26h5v26h-5zM772 741v-9h13v9h-13zM12 416
v-10h13v10h-13zM247 752h5v26h-5v-26zM257 323h5v26h-5v-26zM837 819v-10h13v10h-13zM247 428v-26h5v26h-5zM247 323h5v26h-5v-26zM394 393h14v10h-14v-10zM44 608h-13v-9h13v9zM747 721v-27h5v27h-5zM-4 339v-13h10v13h-10zM333 973v-10h14v10h-14zM699 752h5v26h-5v-26z
M495 608h-13v-9h13v9zM482 403v-10h13v10h-13zM837 741v-9h13v9h-13zM31 504v-9h13v9h-13zM12 504v-9h13v9h-13zM918 1021v-13h10v13h-10zM901 819v-10h13v10h-13zM852 668h6v13h4v-13h2v15h-12v-15zM402 668h6v13h3v-13h3v15h-12v-15zM526 323h5v27h-5v-13h2v-4h-2v-10z
M586 411h6v21h-6v-21zM782 252v-5h12v16h-6v-11h-6zM740 220v-6h20v6h-20zM87 381h-6v-20h6v20zM336 692v-17h7v17h-7zM98 937h-7v-17h7v17zM699 856v-25h5v25h-5zM699 703v-9h5v27h-5v-13h1v-5h-1zM614 778v-33h4v33h-4zM796 428v-14h8v14h-8zM305 292v-25h5v25h-5z
M188 778v-33h3v33h-3zM424 570v-14h9v14h-9zM336 1100h7v16h-7v-16zM797 692v-17h7v17h-7zM876 428v-14h9v14h-9zM345 428v-14h9v14h-9zM247 703v-9h5v27h-5v-13h2v-5h-2zM347 692v-17h7v17h-7zM601 388h15v9h-15v-9zM377 856h-9v-15h9v15zM247 856v-25h5v25h-5zM411 524
v-11h11v11h-11zM273 496v-32h3v32h-3zM715 925v-32h3v32h-3zM257 274v-7h5v25h-5v-15h1v-3h-1zM264 925v-32h4v32h-4zM724 496v-32h4v32h-4zM852 819v-10h12v10h-12zM868 771v-19h6v19h-6zM473 819v-10h12v10h-12zM862 393h12v10h-12v-10zM347 819v-10h12v10h-12zM386 819
v-10h12v10h-12zM322 741v-9h11v9h-11zM788 752h6v19h-6v-19zM72 900v-19h6v19h-6zM586 378v-19h6v19h-6zM98 432v-12h10v12h-10zM838 313h-10v-12h10v12zM539 409h10v12h-10v-12zM347 741v-9h12v9h-12zM386 741v-9h12v9h-12zM846 393h12v10h-12v-10zM453 816v-7h14v10h-6v-3
h-6v-2h-1v2h-1zM106 900v-19h6v19h-6zM402 819v-10h12v10h-12zM416 771v-19h6v19h-6zM386 263h-7v-16h7v16zM116 461v-15h7v15h-7zM936 1046h-7v-16h7v16zM394 390v-9h14v9h-14zM678 388h13v9h-13v-9zM141 818h13v8h-13v-8zM482 390v-9h13v9h-13zM538 381h-5v-22h5v22z
M868 893h6v18h-6v-18zM788 893h6v18h-6v-18zM416 893h6v18h-6v-18zM936 232h-6v-18h6v18zM788 998v-18h6v18h-6zM936 288h-6v-18h6v18zM868 998v-18h6v18h-6zM464 671h3v12h-14v-10h6v8h5v-10zM846 253v-6h9v-9h3v15h-12zM557 411h4v10h-10v-12h6v2zM247 378v-22h5v22h-5z
M247 807v-22h5v22h-5zM747 807v-22h5v22h-5zM196 1073v-21h5v21h-5zM336 856v-15h7v15h-7zM638 1073v-21h5v21h-5zM411 393h11v10h-11v-10zM305 378v-22h5v22h-5zM638 807v-22h5v22h-5zM218 741v-9h10v9h-10zM116 486v-14h7v14h-7zM257 378v-22h5v22h-5zM648 378v-22h5v22
h-5zM247 1073v-21h5v21h-5zM196 378v-22h5v22h-5zM196 807v-22h5v22h-5zM699 1073v-21h5v21h-5zM504 455v-10h10v10h-10zM669 741v-9h11v9h-11zM539 455v-10h10v10h-10zM551 455v-10h10v10h-10zM918 953v-11h10v11h-10zM699 807v-22h5v22h-5zM862 390v-9h12v9h-12zM424 253
v-12h9v12h-9zM788 1100h6v16h-6v-16zM345 313v-12h9v12h-9zM424 351h9v12h-9v-12zM796 490h8v12h-8v-12zM796 313v-12h8v12h-8zM377 931h-9v-12h9v12zM88 432v-12h9v12h-9zM788 692v-17h6v17h-6zM876 351h9v12h-9v-12zM846 390v-9h12v9h-12zM399 526h9v12h-9v-12zM876 490h9
v12h-9v-12zM464 388v-7h13v9h-7v-2h-4v-2h-1v2h-1zM424 490h9v12h-9v-12zM345 490h9v12h-9v-12zM531 837h8v12h-8v-12zM622 653v-11h3v-14h3v25h-6zM657 623h4v27h-4v-27zM699 623h4v27h-4v-27zM778 692v-11h4v-6h3v17h-7zM326 692v-11h4v-6h3v17h-7zM207 623h3v27h-3v-27z
M708 252v-5h20v5h-20zM126 807v-20h4v20h-4zM31 475v-3h13v9h-13v-3h4v-3h-4zM139 317h2v40h-2v-40zM623 868h5v20h-5v-20zM172 868h5v20h-5v-20zM464 267v-8h13v8h-13zM238 752h3v26h-3v-26zM724 428v-26h4v26h-4zM434 752h2v39h-2v-39zM273 428v-26h3v26h-3zM273 323h3v26
h-3v-26zM264 721v-27h4v27h-4zM715 752h3v26h-3v-26zM296 721v-27h4v27h-4zM715 721v-27h3v27h-3zM264 752h4v26h-4v-26zM837 824h13v7h-13v-7zM185 924h3v39h-3v-39zM699 323h4v26h-4v-26zM772 1082v-7h13v7h-13zM901 831v-7h13v7h-13zM885 752h2v39h-2v-39zM330 221v-7h13
v7h-13zM724 323h4v26h-4v-26zM699 428v-26h4v26h-4zM936 1021h-7v-13h7v13zM81 461v-15h6v15h-6zM558 875v-16h6v16h-6zM515 875v-16h6v16h-6zM747 752h5v19h-5v-19zM98 435h10v10h-10v-10zM305 323h5v19h-5v-19zM65 900v-19h4v19h-4zM-4 504v-9h10v9h-10zM514 608h-10v-9
h10v9zM547 840h3v9h-9v-12h6v3zM-4 416v-10h10v10h-10zM257 252v-5h19v5h-19zM247 681v-6h5v5h5v-5h5v2h6v4h-21zM838 403h-10v-10h10v10zM126 900v-19h4v19h-4zM411 390v-9h11v9h-11zM227 388h11v9h-11v-9zM503 1039h-8v-11h8v11zM238 856v-25h3v25h-3zM424 524v-11h9v11
h-9zM567 455v-10h8v10h-8zM669 818h11v8h-11v-8zM377 953h-9v-11h9v11zM273 292v-25h3v25h-3zM354 513v11h-9v-11h9zM218 818h10v8h-10v-8zM715 856v-25h3v25h-3zM264 856v-25h4v25h-4zM470 399v-6h7v10h-13v-4h6zM876 524v-11h9v11h-9zM377 791h-9v-10h9v10zM724 292v-25h4
v25h-4zM757 292v-25h3v25h-3zM37 457v-4h7v8h-13v-4h6zM579 678h-12v-7h12v7zM740 313v-12h7v12h-7zM171 653v-11h2v-14h3v25h-5zM614 893h4v24h-4v-24zM453 694v-6h14v6h-14zM386 313h-7v-12h7v12zM788 856v-15h6v15h-6zM402 841h12v8h-12v-8zM402 824h12v7h-12v-7z
M105 411h3v7h-10v-9h7v2zM699 681v-6h4v5h5v-5h6v2h4v4h-19zM116 432v-12h7v12h-7zM386 824h12v7h-12v-7zM868 856v-15h6v15h-6zM336 919h7v12h-7v-12zM347 824h12v7h-12v-7zM852 824h12v7h-12v-7zM782 221v-7h12v7h-12zM386 363h-7v-12h7v12zM936 1060h-7v-12h7v12z
M164 876v-36h2v36h-2zM322 1082v-7h11v7h-11zM911 292h7v12h-7v-12zM288 313v-12h7v12h-7zM936 931h-7v-12h7v12zM-1 1021h-3v-36h3v36zM925 717h-5v-18h5v18zM473 831v-7h12v7h-12zM0 956h6v17h-5v-13h-1v-4zM712 981v-4h12v4h-6v8h-3v-8h-3zM173 446v-35h3v35h-3zM81 1052
v1h7v8h-9v-9h2zM261 981v-4h12v4h-5v8h-4v-8h-3zM625 446v-35h3v35h-3zM424 393h9v10h-9v-10zM88 826h-9v-8h9v8zM549 397h-10v-9h10v9zM108 397h-10v-9h10v9zM345 393h9v10h-9v-10zM796 393h8v10h-8v-10zM561 632h-10v-8h10v8zM876 393h9v10h-9v-10zM61 608h-8v-9h8v9z
M-4 453h10v8h-10v-8zM567 411h8v10h-8v-10zM377 819h-9v-10h9v10zM561 397h-10v-9h10v9zM88 409h9v9h-9v-9zM88 435h9v10h-9v-10zM194 1116v-16h4v16h-4zM164 778v-33h2v33h-2zM108 632h-10v-8h10v8zM576 917v-34h3v34h-3zM69 937h-4v-17h4v17zM838 390h-10v-9h10v9z
M377 741h-9v-9h9v9zM901 694v-6h13v6h-13zM136 1116v-6h13v6h-13zM416 998v-13h6v13h-6zM238 1073v-21h3v21h-3zM264 1073v-21h4v21h-4zM207 378v-22h3v22h-3zM188 807v-22h3v22h-3zM296 807v-22h4v22h-4zM715 1073v-21h3v21h-3zM724 378v-22h4v22h-4zM264 807v-22h4v22h-4z
M894 313v-21h4v21h-4zM343 942v11h-7v-11h7zM649 807v-22h4v22h-4zM715 807v-22h3v22h-3zM699 378v-22h4v22h-4zM443 313v-21h4v21h-4zM188 1073v-21h3v21h-3zM273 378v-22h3v22h-3zM649 1073v-21h4v21h-4zM657 378v-22h4v22h-4zM238 807v-22h3v22h-3zM218 1082v-7h10v7h-10
zM16 457h9v4h-13v-8h4v4zM173 348v-31h3v31h-3zM580 807v-62h1v62h-1zM-4 894v-31h3v31h-3zM75 461v-15h5v15h-5zM524 875v-16h4v16h-4zM807 363v-4h15v4h-15zM-1 953h-3v-31h3v31zM625 348v-31h3v31h-3zM533 1052v1h6v8h-8v-9h2zM461 827v-3h6v7h-14v-4h8zM75 220v-6h12v6
h-12zM416 919h6v12h-6v-12zM936 304h-6v-12h6v12zM416 683v-12h6v12h-6zM708 313v-12h6v12h-6zM868 919h6v12h-6v-12zM788 919h6v12h-6v-12zM81 432v-12h6v12h-6zM526 220v-6h12v6h-12zM294 941h6v12h-6v-12zM515 837h6v12h-6v-12zM402 1040h12v6h-12v-6zM539 826h-8v-8h8v8
zM97 397h-9v-9h9v9zM550 1061h-9v-8h9v8zM424 390v-9h9v9h-9zM550 826h-9v-8h9v8zM876 390v-9h9v9h-9zM53 472h8v9h-8v-9zM567 388h8v9h-8v-9zM116 435h7v10h-7v-10zM757 323h3v19h-3v-19zM723 552v-3h12v3h-7v7h-4v-7h-1zM911 403v-10h7v10h-7zM928 819h-8v-10h8v10z
M10 527h6v17h-4v-13h-2v-4zM288 570v-9h7v9h-7zM305 623h5v14h-5v-14zM740 570v-9h7v9h-7zM894 570v-19h4v19h-4zM296 752h4v19h-4v-19zM730 741v-9h8v9h-8zM894 611h4v19h-4v-19zM336 741v-9h7v9h-7zM757 378v-19h3v19h-3zM936 819h-7v-10h7v10zM918 1116v-7h10v7h-10z
M669 1082v-7h11v6h-9v1h-2zM33 669h-2v-27h2v27zM614 1071v-14h4v16h-6v-2h2zM271 552v-3h11v3h-6v7h-3v-7h-2zM586 455v-10h6v10h-6zM50 1039h-6v-11h6v11zM868 953v-11h6v11h-6zM411 414h11v6h-11v-6zM894 270h4v18h-4v-18zM443 464h4v18h-4v-18zM868 781h6v10h-6v-10z
M411 611h11v6h-11v-6zM416 781h6v10h-6v-10zM521 1039h-6v-11h6v11zM78 1039h-6v-11h6v11zM894 464h4v18h-4v-18zM416 953v-11h6v11h-6zM443 270h4v18h-4v-18zM691 752h2v26h-2v-26zM482 363v-4h13v4h-13zM543 623v1h6v8h-8v-9h2zM355 692v-17h4v17h-4zM377 831h-9v-7h9v7z
M134 378v-17h3v17h-3zM911 390v-9h7v9h-7zM730 980h8v9h-8v-9zM730 998v-8h8v8h-8zM116 388h7v9h-7v-9zM386 390h-7v-9h7v9zM614 876v-17h4v17h-4zM98 1061h-7v-8h7v8zM288 551h7v8h-7v-8zM98 826h-7v-8h7v8zM691 856v-25h2v25h-2zM740 551h7v8h-7v-8zM247 313v-12h5v12h-5z
M521 1061h-6v-9h6v9zM75 432v-12h5v12h-5zM280 741v-9h6v9h-6zM164 893h2v24h-2v-24zM788 741v-9h6v9h-6zM868 819v-10h6v10h-6zM87 632h-6v-9h6v9zM526 409h5v12h-5v-12zM81 409h6v9h-6v-9zM87 608h-6v-9h6v9zM846 363v-4h12v4h-12zM78 1061h-6v-9h6v9zM305 512h5v12h-5
v-12zM936 403h-6v-10h6v10zM708 570v-9h6v9h-6zM416 819v-10h6v10h-6zM862 363v-4h12v4h-12zM81 435h6v10h-6v-10zM539 220v-6h10v6h-10zM885 683v-24h2v24h-2zM533 409h5v12h-5v-12zM636 977h5v12h-5v-12zM196 977h5v12h-5v-12zM524 837h4v12h-4v-12zM257 313v-12h5v12h-5z
M305 313v-12h5v12h-5zM134 461v-15h3v15h-3zM936 985h-7v-5h1v-3h6v8zM173 464h3v22h-3v-22zM625 464h3v22h-3v-22zM218 925v-1h14v7h-6v-6h-8zM192 549h5v10h-5v-10zM69 1039h-4v-11h4v11zM134 486v-14h3v14h-3zM936 1116h-7v-7h7v7zM691 1073v-21h2v21h-2zM443 570v-14h4
v14h-4zM936 831h-7v-7h7v7zM691 807v-22h2v22h-2zM-4 827h3v22h-3v-22zM443 428v-14h4v14h-4zM928 831h-8v-7h8v7zM894 428v-14h4v14h-4zM336 824h7v7h-7v-7zM936 524h-5v-11h5v11zM757 623h3v14h-3v-14zM116 411h7v7h-7v-7zM911 267v-8h7v8h-7zM678 496v-1h14v8h-5v-7h-9z
M533 455v-10h5v10h-5zM528 1039h-4v-11h4v11zM92 623v1h5v8h-6v-9h1zM336 1082v-7h7v7h-7zM526 455v-10h5v10h-5zM87 397h-6v-9h6v9zM424 414h9v6h-9v-6zM558 818h6v8h-6v-8zM424 611h9v6h-9v-6zM33 530h6v8h-6v-8zM558 840h6v9h-6v-9zM586 397v-9h6v9h-6zM106 818h6v8h-6
v-8zM88 220v-6h9v6h-9zM227 496v-1h13v8h-5v-7h-8zM78 826h-6v-8h6v8zM280 998v-8h6v8h-6zM708 551h6v8h-6v-8zM280 980h6v9h-6v-9zM936 390h-6v-9h6v9zM164 1071v-14h2v16h-6v-2h4zM434 741v-20h2v20h-2zM885 741v-20h2v20h-2zM561 249h-10v-5h10v5zM80 608h-5v-9h5v9z
M538 632h-5v-9h5v9zM75 409h5v9h-5v-9zM531 608h-5v-9h5v9zM528 1061h-4v-9h4v9zM247 741v-9h5v9h-5zM75 435h5v10h-5v-10zM538 608h-5v-9h5v9zM549 249h-10v-5h10v5zM747 741v-9h5v9h-5zM531 632h-5v-9h5v9zM69 1061h-4v-9h4v9zM25 959h5v9h-5v-9zM699 741v-9h5v9h-5z
M108 249h-10v-5h10v5zM80 632h-5v-9h5v9zM838 363h-10v-4h10v4zM669 925v-1h14v7h-5v-6h-9zM850 683h-4v-12h4v12zM894 490h4v12h-4v-12zM936 999h-7v-6h7v6zM724 623h4v12h-4v-12zM885 893h2v18h-2v-18zM885 699h2v18h-2v-18zM885 998v-18h2v18h-2zM788 1082v-7h6v7h-6z
M273 313v-12h3v12h-3zM862 263v-4h12v4h-12zM911 313v-6h7v6h-7zM868 824h6v7h-6v-7zM852 692v-4h12v4h-12zM846 263v-4h12v4h-12zM160 1082v-7h6v7h-6zM757 313v-12h3v12h-3zM612 1082v-7h6v7h-6zM443 490h4v12h-4v-12zM273 623h3v12h-3v-12zM649 977h4v12h-4v-12zM443 253
v-12h4v12h-4zM699 313v-12h4v12h-4zM-1 1046h-3v-18h3v18zM398 683h-4v-12h4v12zM402 692v-4h12v4h-12zM134 432v-12h3v12h-3zM788 824h6v7h-6v-7zM416 824h6v7h-6v-7zM434 699h2v18h-2v-18zM724 313v-12h4v12h-4zM416 841h6v8h-6v-8zM434 893h2v18h-2v-18zM648 388h5v9h-5
v-9zM638 818h5v8h-5v-8zM247 998v-8h5v8h-5zM528 826h-4v-8h4v8zM699 998v-8h5v8h-5zM247 388h5v9h-5v-9zM196 818h5v8h-5v-8zM126 818h4v8h-4v-8zM4 527h2v17h-2v-17zM139 378v-17h2v17h-2zM247 980h5v9h-5v-9zM-4 956h3v17h-3v-17zM538 397h-5v-9h5v9zM699 980h5v9h-5v-9z
M196 388h5v9h-5v-9zM580 917v-34h1v34h-1zM97 249h-9v-5h9v5zM567 628h8v4h-8v-4zM645 549h4v10h-4v-10zM207 549h3v10h-3v-10zM894 524v-11h4v11h-4zM657 549h4v10h-4v-10zM443 524v-11h4v11h-4zM411 263v-4h11v4h-11zM139 461v-15h2v15h-2zM576 875v-16h3v16h-3zM416 1040
h6v6h-6v-6zM936 313h-6v-6h6v6zM708 496v-6h6v6h-6zM152 579h1v29h-1v-29zM1 898h15v2h-15v-2zM740 390v-5h7v5h-7zM288 390v-5h7v5h-7zM699 1082v-7h5v7h-5zM196 1082v-7h5v7h-5zM885 856v-15h2v15h-2zM134 435h3v10h-3v-10zM740 252v-5h7v5h-7zM715 741v-9h3v9h-3z
M116 628h7v4h-7v-4zM238 741v-9h3v9h-3zM247 1082v-7h5v7h-5zM434 856v-15h2v15h-2zM139 486v-14h2v14h-2zM273 570v-9h3v9h-3zM-4 801v-14h3v14h-3zM264 741v-9h4v9h-4zM894 393h4v10h-4v-10zM541 678v-5h8v5h-8zM108 524h-10v-4h10v4zM699 570v-9h4v9h-4zM638 1082v-7h5v7
h-5zM561 524h-10v-4h10v4zM730 819v-5h8v5h-8zM92 608h-4v-9h4v9zM288 252v-5h7v5h-7zM543 608h-4v-9h4v9zM296 741v-9h4v9h-4zM724 570v-9h4v9h-4zM434 998v-13h2v13h-2zM12 475v-3h13v3h-13zM134 588v-13h2v13h-2zM12 478h13v3h-13v-3zM-4 769h3v13h-3v-13zM-1 816h-3v-13
h3v13zM649 818h4v8h-4v-8zM876 263v-4h9v4h-9zM264 998v-8h4v8h-4zM188 818h3v8h-3v-8zM424 263v-4h9v4h-9zM657 388h4v9h-4v-9zM238 998v-8h3v8h-3zM894 390v-9h4v9h-4zM550 953h-9v-4h9v4zM207 388h3v9h-3v-9zM238 980h3v9h-3v-9zM699 388h4v9h-4v-9zM614 818h4v8h-4v-8z
M238 818h3v8h-3v-8zM134 388h3v9h-3v-9zM715 998v-8h3v8h-3zM699 551h4v8h-4v-8zM614 840h4v9h-4v-9zM257 496v-6h5v6h-5zM106 1057h6v4h-6v-4zM247 925v-6h5v6h-5zM139 432v-12h2v12h-2zM558 1057h6v4h-6v-4zM185 977h3v12h-3v-12zM699 925v-6h5v6h-5zM747 681v-6h5v6h-5z
M280 819v-5h6v5h-6zM87 249h-6v-5h6v5zM434 919h2v12h-2v-12zM22 898h11v2h-11v-2zM98 220v-6h5v6h-5zM885 919h2v12h-2v-12zM434 683v-12h2v12h-2zM406 588h2v22h-2v-22zM434 669v-10h2v10h-2zM443 381h4v7h-4v-7zM443 267v-8h4v8h-4zM98 953h-7v-4h7v4zM715 1082v-7h3v7
h-3zM434 953v-11h2v11h-2zM849 1017h1v22h-1v-22zM885 953v-11h2v11h-2zM238 1082v-7h3v7h-3zM188 1082v-7h3v7h-3zM81 1039h-2v-11h2v11zM649 1082v-7h4v7h-4zM397 1017h1v22h-1v-22zM533 1039h-2v-11h2v11zM894 267v-8h4v8h-4zM134 411h3v7h-3v-7zM264 1082v-7h4v7h-4z
M305 252v-5h5v5h-5zM-4 475v-3h10v3h-10zM885 819v-10h2v10h-2zM533 678v-5h5v5h-5zM-4 478h10v3h-10v-3zM481 968h-3v-9h3v9zM80 249h-5v-5h5v5zM531 249h-5v-5h5v5zM747 819v-5h5v5h-5zM139 696v-19h-2v19h2zM538 249h-5v-5h5v5zM305 390v-5h5v5h-5zM691 741v-9h2v9h-2z
M139 435h2v10h-2v-10zM416 692v-4h6v4h-6zM521 953h-6v-4h6v4zM443 611h4v6h-4v-6zM708 393h6v4h-6v-4zM724 393h4v6h-4v-6zM296 681v-6h4v6h-4zM868 692v-4h6v4h-6zM576 818h3v8h-3v-8zM691 818h2v8h-2v-8zM576 840h3v9h-3v-9zM838 692h-1v-17h1v17zM164 818h2v8h-2v-8z
M625 388h3v9h-3v-9zM691 998v-8h2v8h-2zM173 388h3v9h-3v-9zM490 538h-2v-8h2v8zM139 388h2v9h-2v-9zM691 980h2v9h-2v-9zM273 393h3v6h-2v-2h-1v-4zM148 496v-1h16v1h-16zM592 925v-1h15v1h-15zM580 875v-16h1v16h-1zM134 628h3v4h-3v-4zM601 496v-1h15v1h-15zM885 824h2v7
h-2v-7zM339 956h5v4h-5v-4zM139 411h2v7h-2v-7zM724 390v-5h4v5h-4zM691 1082v-7h2v7h-2zM558 678v-7h3v7h-3zM264 819v-5h4v5h-4zM80 524h-5v-4h5v4zM273 390v-5h3v5h-3zM257 393h5v4h-5v-4zM434 809h2v7h-2v-7zM69 953h-4v-4h4v4zM531 524h-5v-4h5v4zM757 252v-5h3v5h-3z
M757 390v-5h3v5h-3zM296 819v-5h4v5h-4zM715 819v-5h3v5h-3zM126 1017v-13h1v13h-1zM586 588v-13h1v13h-1zM141 925v-1h13v1h-13zM576 1017v-13h1v13h-1zM434 1040h2v6h-2v-6zM885 694v-6h2v6h-2zM434 694v-6h2v6h-2zM864 452h-2v-6h2v6zM443 403v-4h4v4h-4zM850 692h-4v-4
h4v4zM350 527h4v4h-4v-4zM264 824h4v3h-4v-3zM398 692h-4v-4h4v4zM-4 399h10v1h-10v-1zM247 824h5v2h-5v-2zM528 678h-2v-5h2v5zM576 1057h3v4h-3v-4zM715 824h3v3h-2v-1h-1v-2zM699 824h5v2h-5v-2zM580 840h1v9h-1v-9zM580 818h1v8h-1v-8zM434 831v-4h2v4h-2zM171 678v-1
h-7v1h7zM412 452h-1v-6h1v6zM558 925v-1h6v1h-6zM586 496v-1h6v1h-6zM106 925v-1h6v1h-6zM708 390v-2h6v2h-6zM403 881h-1v-5h1v5zM126 925v-1h4v1h-4zM-4 898h3v2h-3v-2zM257 390v-2h5v2h-5zM247 819v-1h5v1h-5zM853 881h-1v-5h1v5zM699 819v-1h5v1h-5zM247 496v-1h5v1h-5z
M134 551h3v1h-3v-1zM614 925v-1h4v1h-4zM134 496v-1h3v1h-3zM699 496v-1h4v1h-4zM238 925v-1h3v1h-3zM173 496v-1h3v1h-3zM139 496v-1h2v1h-2zM625 496v-1h3v1h-3zM576 980h3v1h-3v-1zM576 925v-1h3v1h-3zM691 925v-1h2v1h-2zM164 925v-1h2v1h-2zM580 925v-1h1v1h-1z" />
    <glyph glyph-name="heart" unicode="&#x2665;" horiz-adv-x="1248" 
d="M617 159q-365 448 -392 485q-73 114 -73 201t63 148q65 62 154 62q94 0 164 -64q53 -47 84 -139q30 89 81 139q67 64 164 64q91 0 154 -60t63 -143q0 -73 -38 -154q-37 -79 -424 -539z" />
    <glyph glyph-name="vavshindot" unicode="&#xe801;" horiz-adv-x="502" 
d="M93 0v1268h311v-1268h-311zM247 1657q33 0 62 -26.5t29 -65.5t-27 -65t-64 -26q-39 0 -66 26t-27 65q0 37 26.5 64.5t66.5 27.5z" />
    <glyph glyph-name="finalkafsheva" unicode="&#xe802;" horiz-adv-x="783" 
d="M689 1268v-1579h-310v1337h-335v242h645zM229 795q-46 0 -70 -30q-23 -29 -23 -60q0 -42 26.5 -67.5t66.5 -25.5q38 0 64.5 25.5t26.5 67.5q0 35 -27 62.5t-64 27.5zM229 509q-41 0 -67 -25.5t-26 -67.5q0 -35 27.5 -63t65.5 -28q36 0 63.5 28t27.5 63q0 40 -26.5 66.5
t-64.5 26.5z" />
    <glyph glyph-name="finalkafqamats" unicode="&#xe803;" horiz-adv-x="801" 
d="M714 1268v-1579h-310v1337h-335v242h645zM152 367h79v136h99v83h-277v-83h99v-136z" />
    <glyph glyph-name="lamedholam" unicode="&#xe804;" horiz-adv-x="818" 
d="M778 1268l-301 -1268h-293l237 1026h-370v502h289v-260h438zM-147 1701q33 0 62 -26.5t29 -65.5t-27 -65t-64 -26q-39 0 -66 26t-27 65q0 37 26.5 64.5t66.5 27.5z" />
    <glyph glyph-name="lamedholamdagesh" unicode="&#xe805;" horiz-adv-x="806" 
d="M766 1268l-301 -1268h-293l237 1026h-370v502h289v-260h438zM-177 1701q33 0 62 -26.5t29 -65.5t-27 -65t-64 -26q-39 0 -66 26t-27 65q0 37 26.5 64.5t66.5 27.5zM130 822q33 0 62 -25q31 -24 31 -67q0 -39 -27.5 -65t-65.5 -26t-65.5 26t-27.5 65q0 36 24.5 64t68.5 28
z" />
    <glyph glyph-name="uniF031" unicode="&#xf031;" horiz-adv-x="607" 
d="M145 1268h311v-1268h-311v1268z" />
    <glyph glyph-name="alefalefalef" unicode="&#xf8ff;" horiz-adv-x="3413" 
d="M240 140v942h942v-942h-942zM754 629h-5q-1 8 -8 18t-22 27l-21 24l-235 259h-49v-53l151 -152q-39 -16 -62.5 -41t-42.5 -62q-36 -79 44 -203q31 -51 10 -101h-120q-7 -7 -8.5 -25.5t8.5 -40.5h164q36 83 32.5 124t-53.5 138q-12 27 -13.5 58.5t21.5 62t65 41.5
l379 -446h44l2 49l-196 231q-26 29 -28 56.5t11 48.5q34 63 85.5 125.5t89.5 62.5h33v37q0 10 -1.5 16t-9 11t-22.5 5h-126l-24 58h-44l-7 -114q26 -11 85 -11q-67 -83 -97 -129.5t-30 -73.5zM1231 140v942h943v-942h-943zM1743 629h-3q-1 5 -4 11t-9 13.5t-11 13t-13.5 16
t-13.5 15.5l-234 259h-49v-53l151 -152q-39 -16 -62 -40.5t-44 -62.5q-38 -77 44 -203q31 -53 11 -101h-123q-6 -6 -7 -25.5t7 -40.5h166q35 81 31 123.5t-55 138.5q-10 19 -11.5 43t6 47.5t29 43.5t52.5 28l380 -446h44v49l-196 231q-27 30 -28.5 57t13.5 48
q33 63 84 125.5t90 62.5h32v37q0 11 -1 16t-8.5 10.5t-22.5 5.5h-125l-25 58h-44l-9 -114q29 -11 88 -11q-130 -155 -130 -203zM2228 140v942h942v-942h-942zM2742 629h-5q-2 8 -9.5 18.5t-20 25.5t-19.5 25l-238 259h-46v-53l152 -152q-68 -26 -108 -103q-36 -79 44 -203
q31 -51 10 -101h-120q-7 -7 -8.5 -25.5t8.5 -40.5h166q35 81 31 124t-58 138q-10 27 -10.5 58.5t22.5 62t64 41.5l379 -446h45l2 49l-196 231q-26 29 -28 56.5t11 48.5q33 62 84.5 125t90.5 63h33v37q0 10 -1.5 16t-9 11t-22.5 5h-123l-24 58h-45l-9 -114q26 -11 85 -11
q-67 -83 -97 -129.5t-30 -73.5z" />
    <glyph glyph-name="uniFB1D" unicode="&#xfb1d;" horiz-adv-x="582" 
d="M142 563v705h311v-705h-311zM24 819q25 0 45.5 -18.5t20.5 -47.5t-19.5 -47.5t-46.5 -18.5t-46.5 18.5t-19.5 47.5q0 26 17.5 46t48.5 20z" />
    <glyph glyph-name="shinshindot" unicode="&#xfb2a;" horiz-adv-x="1256" 
d="M910 1268h260v-661q0 -168 -35 -288.5t-101.5 -189t-150 -99t-190.5 -30.5h-527l-96 1268h257l81 -1050h192q55 0 95 5.5t83 25.5t70 54.5t44.5 96t17.5 146.5v722zM761 1263v-761h-247v761h247zM999 1584q33 0 62 -26.5t29 -65.5t-27 -65t-64 -26q-39 0 -66 26t-27 65
q0 37 26.5 64.5t66.5 27.5z" />
    <glyph glyph-name="shinsindot" unicode="&#xfb2b;" horiz-adv-x="1229" 
d="M896 1268h260v-661q0 -168 -35 -288.5t-101.5 -189t-150 -99t-190.5 -30.5h-527l-96 1268h257l81 -1050h192q55 0 95 5.5t83 25.5t70 54.5t44.5 96t17.5 146.5v722zM747 1263v-761h-247v761h247zM168 1574q33 0 62 -26.5t29 -65.5t-27 -65t-64 -26q-39 0 -66 26t-27 65
q0 37 26.5 64.5t66.5 27.5z" />
    <glyph glyph-name="shindageshshindot" unicode="&#xfb2c;" horiz-adv-x="1273" 
d="M673 437q25 0 48.5 -21.5t23.5 -51.5q0 -31 -21.5 -51.5t-50.5 -20.5q-31 0 -52.5 20t-21.5 52q0 29 21 51t53 22zM920 1268h260v-661q0 -168 -35 -288.5t-101.5 -189t-150 -99t-190.5 -30.5h-527l-96 1268h257l81 -1050h192q55 0 95 5.5t83 25.5t70 54.5t44.5 96
t17.5 146.5v722zM771 1263v-761h-247v761h247zM925 1586q33 0 62 -26.5t29 -65.5t-27 -65t-64 -26q-39 0 -66 26t-27 65q0 37 26.5 64.5t66.5 27.5z" />
    <glyph glyph-name="shindageshsindot" unicode="&#xfb2d;" horiz-adv-x="1261" 
d="M224 1603q33 0 62 -26.5t29 -65.5t-27 -65t-64 -26q-39 0 -66 26t-27 65q0 37 26.5 64.5t66.5 27.5zM938 1268h260v-661q0 -168 -35 -288.5t-101.5 -189t-150 -99t-190.5 -30.5h-527l-96 1268h257l81 -1050h192q55 0 95 5.5t83 25.5t70 54.5t44.5 96t17.5 146.5v722z
M789 1263v-761h-247v761h247zM668 436q28 0 52.5 -22.5t24.5 -55.5t-22.5 -55.5t-54.5 -22.5q-33 0 -56 22.5t-23 55.5q0 31 22.5 54.5t56.5 23.5z" />
    <glyph glyph-name="betdagesh" unicode="&#xfb31;" horiz-adv-x="913" 
d="M735 243h115v-243h-745v243h322v783h-322v242h630v-1025zM250 729q33 0 62 -25q31 -24 31 -67q0 -39 -27.5 -65t-65.5 -26t-65.5 26t-27.5 65q0 36 24.5 64t68.5 28z" />
    <glyph glyph-name="gimeldagesh" unicode="&#xfb32;" horiz-adv-x="818" 
d="M602 1268l154 -1268h-264q-40 301 -44 341q-34 -174 -123 -257.5t-212 -83.5h-32v308h63q83 0 137.5 24.5t80.5 69t34.5 108t-0.5 141.5l-43 375h-152v242h401zM137 697q-44 0 -68.5 -28t-24.5 -64q0 -39 27.5 -65t65.5 -26t65.5 26t27.5 65q0 43 -31 67q-29 25 -62 25z
" />
    <glyph glyph-name="daletdagesh" unicode="&#xfb33;" horiz-adv-x="837" 
d="M658 0h-306v1026h-286v242h690v-242h-98v-1026zM206 776q33 0 62 -25q31 -24 31 -67q0 -39 -27.5 -65t-65.5 -26t-65.5 26t-27.5 65q0 36 24.5 64t68.5 28z" />
    <glyph glyph-name="hedagesh" unicode="&#xfb34;" horiz-adv-x="960" 
d="M110 0v783h292v-783h-292zM110 1268h750v-1268h-294v1026h-456v242zM439 976q-33 0 -51 -20t-18 -47q0 -29 20.5 -48t48.5 -19t48.5 19t20.5 48t-21.5 48t-47.5 19z" />
    <glyph glyph-name="vavdagesh" unicode="&#xfb35;" horiz-adv-x="573" 
d="M124 0v1268h311v-1268h-311zM-18 728q23 0 43 -18t20 -45q0 -28 -18 -46t-45 -18t-45.5 18t-18.5 46q0 25 18.5 44t45.5 19z" />
    <glyph glyph-name="zayindagesh" unicode="&#xfb36;" horiz-adv-x="736" 
d="M602 0h-318l-76 423q-50 296 -42 399q4 37 16 71.5t26 57.5t28 40.5t24 26.5l9 8h-218v242h629v-242h-154q-5 -5 -13.5 -16t-25 -54t-20.5 -97q1 -30 -0.5 -39.5t2.5 -48t5.5 -55t8 -61t10 -66.5l11.5 -71l12 -75q15 -84 36.5 -194.5l35.5 -179.5zM34 598q26 0 50 -21
t24 -53t-22 -53t-52 -21q-33 0 -54.5 20.5t-21.5 53.5q0 30 21.5 52t54.5 22z" />
    <glyph glyph-name="tetdagesh" unicode="&#xfb38;" horiz-adv-x="1021" 
d="M923 1268v-852q0 -212 -113.5 -314t-347.5 -102h-298l-113 1268h297l80 -1035h76q78 0 112.5 54t34.5 168v571h-147v242h419zM528 922q-39 0 -60.5 -25t-21.5 -57q0 -35 24 -58t58 -23t58 23t24 58q0 38 -27 60q-26 22 -55 22z" />
    <glyph glyph-name="yoddagesh" unicode="&#xfb39;" horiz-adv-x="622" 
d="M179 563v705h311v-705h-311zM34 877q24 0 46.5 -20t22.5 -50t-20.5 -49.5t-48.5 -19.5q-30 0 -50.5 19.5t-20.5 49.5q0 28 20 49t51 21z" />
    <glyph glyph-name="finalkafdagesh" unicode="&#xfb3a;" horiz-adv-x="794" 
d="M697 1268v-1579h-310v1337h-335v242h645zM213 732q-44 0 -68.5 -28t-24.5 -64q0 -39 27.5 -65t65.5 -26t65.5 26t27.5 65q0 43 -31 67q-29 25 -62 25z" />
    <glyph glyph-name="kafdagesh" unicode="&#xfb3b;" horiz-adv-x="788" 
d="M318 1268q146 0 228 -39t120.5 -134.5t38.5 -267.5v-386q0 -173 -38.5 -268.5t-120 -134t-228.5 -38.5h-257v243h182q48 0 72.5 5t45.5 24t28.5 58.5t7.5 108.5v381q0 105 -32 155.5t-113 50.5h-193v242h259zM231 704q-40 0 -62.5 -25.5t-22.5 -59.5q0 -36 24.5 -59.5
t60.5 -23.5q34 0 59.5 24t25.5 59q0 40 -28 62q-29 23 -57 23z" />
    <glyph glyph-name="lameddagesh" unicode="&#xfb3c;" horiz-adv-x="847" 
d="M800 1268l-301 -1268h-293l237 1026h-370v502h289v-260h438zM196 876q-44 0 -68.5 -28t-24.5 -64q0 -39 27.5 -65t65.5 -26t65.5 26t27.5 65q0 43 -31 67q-29 25 -62 25z" />
    <glyph glyph-name="memdagesh" unicode="&#xfb3e;" horiz-adv-x="1021" 
d="M504 0v262h132v551q0 115 -27 163t-110 50h-46l-131 -1026h-278l149 1006h-110v262h470q108 0 175.5 -25.5t109.5 -90.5t57.5 -165.5t14.5 -259.5v-727h-406zM485 473q-29 0 -45 -18.5t-16 -42.5q0 -26 18 -43.5t43 -17.5t43 17.5t18 43.5t-19 43.5t-42 17.5z" />
    <glyph glyph-name="nundagesh" unicode="&#xfb40;" horiz-adv-x="680" 
d="M51 0v243h91q86 0 111.5 46.5t25.5 158.5v558h-159v262h455v-911q0 -176 -66.5 -266.5t-214.5 -90.5h-243zM164 727q29 0 53.5 -21.5t24.5 -55.5q0 -33 -23 -54.5t-55 -21.5t-55 21.5t-23 54.5q0 30 21 53.5t57 23.5z" />
    <glyph glyph-name="samekhdagesh" unicode="&#xfb41;" horiz-adv-x="974" 
d="M478 897q-29 0 -48 -20t-19 -47q0 -28 19.5 -46.5t47.5 -18.5q27 0 46.5 18.5t19.5 46.5t-21 47.5t-45 19.5zM56 1268h808q5 -517 0 -815q-5 -221 -112.5 -337t-333.5 -116h-274zM595 558v493h-248l61 -836h37q82 0 116 82.5t34 260.5z" />
    <glyph glyph-name="pedagesh" unicode="&#xfb44;" horiz-adv-x="977" 
d="M500 1268q209 0 298.5 -115t89.5 -375v-290q0 -259 -89.5 -373.5t-298.5 -114.5h-390v243h353q76 0 106.5 57t30.5 202v283q0 147 -31 200t-109 53h-98v-470h-254v700h392zM476 727q-23 0 -38.5 -17t-15.5 -39q0 -24 15.5 -39t38.5 -15q22 0 38 15.5t16 38.5t-17.5 39.5
t-36.5 16.5z" />
    <glyph glyph-name="tsadidagesh" unicode="&#xfb46;" horiz-adv-x="977" 
d="M888 896q0 -169 -70 -249.5t-204 -88.5l243 -558h-743v243h348l-433 1025h306l198 -502q38 -3 56 31t18 84v387h281v-372zM194 501q-31 0 -48.5 -20t-17.5 -46q0 -29 19.5 -47.5t46.5 -18.5t46.5 18.5t19.5 47.5t-20.5 47.5t-45.5 18.5z" />
    <glyph glyph-name="qofdagesh" unicode="&#xfb47;" horiz-adv-x="1028" 
d="M114 -311v1119h267v-1119h-267zM920 1268v-719q0 -78 -2.5 -133t-11.5 -116.5t-25 -103t-43.5 -81.5t-67 -63.5t-96 -37.5t-129.5 -14h-54v227h13q73 0 96.5 50.5t23.5 163.5v585h-514v242h810zM482 967q-34 0 -53.5 -22t-19.5 -51q0 -32 21.5 -52.5t51.5 -20.5
t51.5 20.5t21.5 52.5t-23 52.5t-50 20.5z" />
    <glyph glyph-name="shindagesh" unicode="&#xfb49;" horiz-adv-x="1268" 
d="M915 1268h260v-661q0 -168 -35 -288.5t-101.5 -189t-150 -99t-190.5 -30.5h-527l-96 1268h257l81 -1050h192q55 0 95 5.5t83 25.5t70 54.5t44.5 96t17.5 146.5v722zM766 1263v-761h-247v761h247zM680 440q-32 0 -53 -22t-21 -51q0 -32 21.5 -52t52.5 -20q29 0 50.5 20.5
t21.5 51.5q0 30 -23.5 51.5t-48.5 21.5z" />
    <glyph glyph-name="tavdages" unicode="&#xfb4a;" horiz-adv-x="1060" 
d="M597 1268q73 0 129.5 -14t95.5 -37.5t66.5 -63.5t43 -81t24 -103t11 -116.5t2.5 -132.5v-720h-296v773q0 57 -1 87t-5 68t-12.5 56t-24 36t-39.5 24.5t-58 6.5h-61v-1051h-441v243h172v783h-81v242h475zM565 714q-28 0 -43.5 -18t-15.5 -41q0 -26 17 -42t42 -16
q24 0 41.5 17t17.5 41q0 26 -18.5 42.5t-40.5 16.5z" />
    <glyph glyph-name="vavholam" unicode="&#xfb4b;" horiz-adv-x="541" 
d="M93 0v1268h311v-1268h-311zM257 1654q33 0 62 -26.5t29 -65.5t-27 -65t-64 -26q-39 0 -66 26t-27 65q0 37 26.5 64.5t66.5 27.5z" />
    <glyph glyph-name="CR" horiz-adv-x="330" 
 />
  </font>
</defs>
</svg>
